<?xml version="1.0" encoding="UTF-8"?>
<svg width="306px" height="223px" viewBox="0 0 306 223" version="1.1" xmlns="http://www.w3.org/2000/svg" xmlns:xlink="http://www.w3.org/1999/xlink">
    <!-- Generator: Sketch 50.2 (55047) - http://www.bohemiancoding.com/sketch -->
    <title>Artboard 1</title>
    <desc>Created with Sketch.</desc>
    <defs>
        <polygon id="path-1" points="0.5615 0.072 246.6305 0.072 246.6305 148.3588 0.5615 148.3588"></polygon>
        <polygon id="path-3" points="0.0005 0.2956 305.646 0.2956 305.646 72.9146 0.0005 72.9146"></polygon>
    </defs>
    <g id="Artboard-1" stroke="none" stroke-width="1" fill="none" fill-rule="evenodd">
        <path d="M203.1699,196.6956 C216.7479,187.3506 227.6069,174.3366 234.3239,159.0826 C222.5309,156.7466 189.5489,156.7626 156.1449,158.4096 C121.4709,160.1186 86.8189,163.5676 75.5409,167.9406 C83.0969,180.9386 93.8569,191.8566 106.7429,199.6186 C120.1489,207.6946 135.8669,212.3406 152.6799,212.3406 C171.4429,212.3406 188.8359,206.5626 203.1699,196.6956 M245.8889,158.7586 C238.6229,177.7766 225.6969,194.0036 209.1679,205.3816 C193.0899,216.4486 173.6289,222.9276 152.6799,222.9276 C133.8899,222.9276 116.3019,217.7226 101.2839,208.6756 C85.7649,199.3286 72.9959,185.8616 64.4819,169.7816 C62.1909,165.4566 63.8789,162.0186 68.8759,159.3726 C79.2329,153.8856 117.6789,149.7346 155.6489,147.8626 C193.5859,145.9926 231.5779,146.3786 240.9649,149.9666 C245.6599,151.7606 247.4589,154.6486 245.8889,158.7586" id="Fill-1" fill="#231F20"></path>
        <path d="M240.9453,156.8772 C227.3753,192.3992 192.9743,217.6342 152.6803,217.6342 C116.4593,217.6342 85.0003,197.2462 69.1553,167.3212 C62.1783,154.1482 244.9473,146.4112 240.9453,156.8772" id="Fill-3" fill="#FEFEFE"></path>
        <path d="M204.8848,199.177 C220.1598,188.663 232.1098,173.659 238.8278,156.071 C239.0938,155.377 238.3808,157.068 238.2778,157.028 C229.8148,153.793 193.0818,153.568 156.0018,155.396 C118.9348,157.223 81.7448,161.094 72.3908,166.049 C71.7118,166.408 71.0348,166.033 71.1588,166.267 C79.0198,181.114 90.8258,193.559 105.1828,202.206 C119.0498,210.56 135.3018,215.364 152.6798,215.364 C172.0688,215.364 190.0508,209.387 204.8848,199.177 M243.0628,157.684 C236.0178,176.129 223.4808,191.867 207.4548,202.899 C191.8728,213.623 173.0038,219.903 152.6798,219.903 C134.4548,219.903 117.4018,214.858 102.8428,206.088 C87.7898,197.021 75.4058,183.962 67.1528,168.375 C65.8268,165.873 67.0118,163.775 70.2818,162.042 C80.2378,156.77 118.1808,152.731 155.7888,150.876 C193.3848,149.023 230.8728,149.344 239.8908,152.791 C242.7478,153.884 243.9008,155.495 243.0628,157.684" id="Fill-5" fill="#FEFEFE"></path>
        <path d="M240.9453,156.8772 C227.3753,192.3992 192.9743,217.6342 152.6803,217.6342 C116.4593,217.6342 85.0003,197.2462 69.1553,167.3212 C62.1783,154.1482 244.9473,146.4112 240.9453,156.8772" id="Fill-7" fill="#CC332C"></path>
        <g id="Group-11" transform="translate(29.000000, -0.072000)">
            <mask id="mask-2" fill="white">
                <use xlink:href="#path-1"></use>
            </mask>
            <g id="Clip-10"></g>
            <path d="M246.1855,133.6318 C245.8865,137.1358 245.4395,140.6178 244.8455,144.0728 L244.1115,148.3588 L239.9725,147.0278 C239.8315,146.9828 191.9335,131.3398 121.9945,131.3398 C52.0755,131.3398 7.1235,145.7278 6.9925,145.7688 L2.8255,147.0828 L2.1325,142.7558 C1.6045,139.4628 1.2105,136.2008 0.9555,132.9798 C0.6945,129.6978 0.5615,126.4048 0.5615,123.1088 C0.5615,89.1338 14.3325,58.3738 36.5975,36.1088 C58.8615,13.8438 89.6205,0.0718 123.5955,0.0718 C157.5705,0.0718 188.3285,13.8438 210.5935,36.1098 C232.8595,58.3748 246.6305,89.1348 246.6305,123.1088 C246.6305,126.6398 246.4805,130.1508 246.1855,133.6318 M238.0445,138.5828 C238.2895,136.7458 238.4925,134.8888 238.6525,133.0118 C238.9275,129.7608 239.0685,126.4568 239.0685,123.1088 C239.0685,91.2218 226.1425,62.3528 205.2475,41.4568 C184.3515,20.5608 155.4825,7.6348 123.5955,7.6348 C91.7075,7.6348 62.8405,20.5598 41.9455,41.4558 C21.0495,62.3518 8.1245,91.2218 8.1245,123.1088 C8.1245,126.2598 8.2475,129.3548 8.4885,132.3888 C8.6215,134.0648 8.7855,135.7088 8.9805,137.3218 C21.9145,133.7678 63.4725,123.7768 121.9945,123.7768 C180.9045,123.7768 224.7065,134.7908 238.0445,138.5828" id="Fill-9" fill="#231F20" mask="url(#mask-2)"></path>
        </g>
        <path d="M270.125,143.3665 C271.256,136.7615 271.85,129.9675 271.85,123.0365 C271.85,57.1755 218.457,3.7825 152.595,3.7825 C86.731,3.7825 33.344,57.1755 33.344,123.0365 C33.344,129.5225 33.86,135.8875 34.854,142.0935 C34.854,142.0935 80.495,127.4865 150.994,127.4865 C221.494,127.4865 270.125,143.3665 270.125,143.3665" id="Fill-12" fill="#CC332C"></path>
        <path d="M272.9258,133.3743 C272.6328,136.8233 272.1918,140.2413 271.6138,143.6203 L271.3188,145.3343 L269.6638,144.8023 C269.5238,144.7573 221.2698,128.9993 150.9938,128.9993 C80.7268,128.9993 35.4418,143.4923 35.3098,143.5343 L33.6428,144.0603 L33.3658,142.3293 C32.8548,139.1383 32.4688,135.9363 32.2148,132.7293 C31.9608,129.5223 31.8308,126.2893 31.8308,123.0363 C31.8308,89.6873 45.3478,59.4953 67.2018,37.6413 C89.0548,15.7873 119.2468,2.2693 152.5948,2.2693 C185.9438,2.2693 216.1348,15.7873 237.9898,37.6423 C259.8458,59.4963 273.3628,89.6883 273.3628,123.0363 C273.3628,126.5133 273.2148,129.9613 272.9258,133.3743 M268.9138,141.4133 C269.3398,138.6873 269.6738,135.9243 269.9118,133.1263 C270.1938,129.8073 270.3378,126.4403 270.3378,123.0363 C270.3378,90.5233 257.1578,61.0873 235.8518,39.7803 C214.5448,18.4733 185.1098,5.2943 152.5948,5.2943 C120.0818,5.2943 90.6468,18.4733 69.3408,39.7793 C48.0338,61.0863 34.8558,90.5233 34.8558,123.0363 C34.8558,126.2313 34.9818,129.3853 35.2288,132.4933 C35.4338,135.0883 35.7198,137.6393 36.0818,140.1443 C44.9278,137.5583 88.0658,125.9743 150.9938,125.9743 C214.1858,125.9743 259.8108,138.6753 268.9138,141.4133" id="Fill-14" fill="#FEFEFE"></path>
        <path d="M152.5522,167.4973 L152.5572,167.4973 C202.0232,167.4973 268.9002,182.2253 304.8882,198.6693 L304.8882,153.6493 C263.7072,139.5613 200.6312,127.9793 152.5572,127.9793 C104.6822,127.9793 41.9372,139.4643 0.7562,153.4733 L0.7562,198.4233 C36.8702,182.0773 103.3322,167.4973 152.5572,167.4973 L152.5522,167.4973 Z" id="Fill-16" fill="#FEFEFE"></path>
        <g id="Group-20" transform="translate(0.000000, 126.928000)">
            <mask id="mask-4" fill="white">
                <use xlink:href="#path-3"></use>
            </mask>
            <g id="Clip-19"></g>
            <path d="M231.3965,50.2656 C204.7055,44.8036 176.5765,41.3256 152.5575,41.3256 C128.6605,41.3256 100.6965,44.7676 74.1285,50.1796 C46.0695,55.8966 19.5695,63.8086 1.0655,72.1826 L0.0005,72.6646 L0.0005,71.4946 L0.0005,26.5446 L0.0005,26.0046 L0.5135,25.8296 C21.7825,18.5956 48.7905,12.0336 76.5355,7.3736 C102.6065,2.9946 129.3305,0.2956 152.5575,0.2956 C175.8825,0.2956 202.7365,3.0186 228.9165,7.4306 C256.7715,12.1236 283.8655,18.7316 305.1305,26.0076 L305.6445,26.1826 L305.6465,26.7216 L305.6465,71.7416 L305.6465,72.9146 L304.5765,72.4266 C286.1445,64.0056 259.5765,56.0326 231.3965,50.2656 M152.5525,39.8136 L152.5575,39.8136 C176.6645,39.8136 204.9005,43.3056 231.6975,48.7876 C259.4435,54.4666 285.6505,62.2846 304.1325,70.5736 L304.1325,27.2626 C283.0155,20.0786 256.2185,13.5606 228.6675,8.9176 C202.5765,4.5216 175.8085,1.8086 152.5575,1.8086 C129.4035,1.8086 102.7675,4.4986 76.7835,8.8626 C49.3425,13.4706 22.6305,19.9446 1.5125,27.0856 L1.5125,70.3286 C20.0525,62.0896 46.1905,54.3326 73.8275,48.7036 C100.4995,43.2696 128.5695,39.8136 152.5525,39.8136" id="Fill-18" fill="#231F20" mask="url(#mask-4)"></path>
        </g>
        <path d="M152.5522,127.9807 L152.5572,127.9807 C200.6312,127.9807 263.7072,139.5617 304.8882,153.6497 L304.8882,153.0447 C263.7072,137.3697 200.6312,121.6257 152.5572,121.6257 C104.6822,121.6257 41.9372,137.2357 0.7562,152.8447 L0.7562,153.4727 C41.9372,139.4647 104.6822,127.9807 152.5572,127.9807 L152.5522,127.9807 Z" id="Fill-21" fill="#231F20"></path>
        <path d="M152.5566,167.4973 C103.3336,167.4973 36.8716,182.0773 0.7556,198.4233 L0.7556,198.5583 C36.8716,183.0613 103.3336,173.1383 152.5566,173.1383 L152.5516,173.1383 L152.5566,173.1383 C202.0216,173.1383 268.9006,183.1633 304.8866,198.7953 L304.8866,198.6693 C268.9006,182.2253 202.0216,167.4973 152.5566,167.4973" id="Fill-23" fill="#231F20"></path>
        <path d="M152.5566,122.8753 C189.9256,122.8753 236.3676,131.8423 274.5426,142.7693 C272.7476,141.2213 267.1616,136.4183 265.2966,135.0493 C263.0686,133.4123 260.4006,130.9503 260.3866,130.9393 C255.1446,126.1063 250.5956,119.7873 246.6776,113.8523 C241.8456,106.5363 240.3186,114.8473 234.2886,115.3343 C230.7926,113.1583 226.3246,107.3173 222.3276,103.6323 L214.2106,91.9903 L207.5056,94.1063 C207.6696,94.0193 203.2616,88.6293 202.9606,88.2693 C201.0176,85.9263 199.5016,83.3053 197.3596,81.0913 C193.8336,77.4503 191.0956,74.3513 189.1286,72.5133 C186.7716,70.3003 185.6226,68.7053 183.5256,66.2093 C181.5156,63.8133 178.7556,61.3043 176.5506,58.9503 C174.7146,56.9883 174.1606,55.8573 172.0156,57.3333 C170.1616,58.6083 168.9926,61.1393 167.5876,62.8833 C165.5336,65.4613 161.4976,71.9373 158.2796,71.7043 C154.6286,71.4433 150.3056,64.0163 147.5106,62.0063 C144.9426,60.1553 142.5576,58.0673 140.0966,56.0833 C136.9436,53.5403 131.0626,65.1673 129.4636,67.2313 C126.1116,71.5483 121.9326,74.7903 118.8786,79.2153 C116.9836,81.9523 116.2996,85.0963 113.0776,84.5633 C111.5316,84.3063 110.2716,82.7043 108.2346,82.8063 C103.9216,83.0193 96.8906,98.7833 95.2156,98.1723 C95.1866,98.1603 88.5606,95.7463 88.5606,95.7463 L83.2186,92.4753 L78.3566,92.1113 C74.9546,98.7013 70.5896,103.6343 67.9586,110.4813 C65.8156,116.0623 62.6906,119.3773 56.9296,117.8503 C53.5476,116.9513 54.4356,114.2193 50.6016,118.1903 C46.3266,122.6203 44.1396,128.6613 39.4966,132.8033 C36.3606,135.5943 30.5286,138.9213 29.4066,143.0413 C69.9796,133.1553 110.6676,122.8753 152.5566,122.8753" id="Fill-25" fill="#231F20"></path>
        <path d="M81.4087,99.0071 C79.8647,98.0791 79.8647,93.7501 79.8647,93.7501 C79.8647,93.7501 82.6477,94.3671 84.8137,95.9141 C86.9787,97.4631 94.3967,99.9361 94.3967,99.9361 L91.9257,104.2651 C91.9257,104.2651 90.1697,107.8581 88.7117,110.1931 C87.2547,112.5261 85.5067,115.7301 84.9237,117.1891 C84.3407,118.6451 82.0087,121.2671 82.0087,121.2671 C82.0087,121.2671 83.4637,115.4381 84.0467,113.1061 C84.6277,110.7751 84.3407,108.4421 82.5917,106.6921 C80.8407,104.9451 81.7157,102.9031 82.5917,102.3211 C83.4637,101.7371 81.4087,99.0071 81.4087,99.0071" id="Fill-27" fill="#FEFEFE"></path>
        <path d="M108.0068,85.3982 C108.0068,85.3982 107.0798,89.7302 108.0068,91.2752 C108.9358,92.8212 110.3598,95.8512 108.6278,97.4632 C106.8918,99.0712 111.4048,101.7902 111.4048,101.7902 C111.4048,101.7902 111.4048,93.1302 112.3368,90.3472 L113.2618,87.5622 L108.0068,85.3982 Z" id="Fill-29" fill="#FEFEFE"></path>
        <path d="M138.623,60.3484 C138.623,60.3484 142.647,63.1314 144.811,64.3684 C146.974,65.6044 148.523,69.3154 150.065,70.8634 C151.616,72.4074 155.322,75.1904 157.182,75.8104 C157.182,75.8104 155.943,78.5944 152.544,81.0694 C149.144,83.5444 146.664,84.7804 143.572,86.9454 C140.482,89.1084 140.79,89.7294 140.79,89.7294 C140.79,89.7294 139.245,82.3074 140.167,79.2124 C141.098,76.1204 142.025,76.4304 140.79,72.4074 C139.555,68.3894 137.7,65.2964 137.7,65.2964 L138.623,60.3484 Z" id="Fill-31" fill="#FEFEFE"></path>
        <path d="M173.877,60.6551 C173.877,60.6551 179.137,65.6031 181.607,68.3861 C184.084,71.1711 189.963,78.9041 193.057,81.9961 C196.143,85.0881 201.717,93.1291 203.572,96.5321 L199.859,98.3861 C199.859,98.3861 198,94.3661 194.289,91.5831 C190.582,88.8001 187.484,89.1091 184.703,88.1821 C181.92,87.2521 178.518,85.3991 176.666,83.2311 C174.811,81.0681 173.57,75.5021 173.57,75.5021 C173.57,75.5021 173.877,73.0281 174.811,70.8621 C175.736,68.6971 173.877,60.6551 173.877,60.6551" id="Fill-33" fill="#FEFEFE"></path>
        <path d="M213.4687,95.2927 C213.4687,95.2927 217.1757,103.3337 219.6527,105.4987 C222.1307,107.6637 231.7107,118.1787 231.7107,118.1787 C231.7107,118.1787 228.9337,117.2517 223.3667,114.4667 C217.7907,111.6847 214.7027,109.8307 213.4687,109.2087 C212.2327,108.5917 210.3747,105.8077 211.6097,103.3357 C212.8457,100.8597 213.1617,95.9107 213.1617,95.9107 L213.4687,95.2927 Z" id="Fill-35" fill="#FEFEFE"></path>
        <path d="M243.4648,113.8484 C243.4648,113.8484 249.3438,122.1984 253.3648,126.8394 C257.3828,131.4764 258.9318,132.4054 258.9318,132.4054 C258.9318,132.4054 251.2008,128.6924 250.2698,128.0734 C249.3438,127.4554 249.0368,128.3844 247.1778,128.6924 C245.3238,129.0024 242.8478,128.6924 242.8478,128.6924 C242.8478,128.6924 243.1578,126.5274 243.7738,123.1284 C244.3948,119.7244 243.4648,113.8484 243.4648,113.8484" id="Fill-37" fill="#FEFEFE"></path>
        <path d="M53.7637,117.9964 C53.7637,117.9964 56.3867,119.3924 58.0457,119.6564 C59.7067,119.9174 62.9377,119.1314 62.9377,119.1314 C62.9377,119.1314 62.4157,119.9174 61.1887,121.3164 C59.9657,122.7144 59.5297,123.5884 59.5297,123.5884 C59.5297,123.5884 59.0087,124.8124 58.5707,125.6844 C58.1337,126.5594 57.2607,129.0054 57.2607,129.0054 L55.2477,131.1884 C55.2477,131.1884 55.3357,128.7424 55.6867,127.4354 C56.0357,126.1214 55.2477,123.1514 55.2477,123.1514 C55.2477,123.1514 53.4987,122.1894 53.0657,121.4044 C52.6297,120.6164 53.7637,117.9964 53.7637,117.9964" id="Fill-39" fill="#FEFEFE"></path>
        <path d="M117.2437,196.1272 C116.7007,196.4132 116.1367,196.6452 115.5627,196.8162 C114.9897,196.9862 114.4087,197.1112 113.8277,197.1832 C113.2427,197.2592 112.6327,197.2932 112.0137,197.2932 C110.8557,197.2932 109.8247,197.1342 108.9007,196.8162 C107.9897,196.4982 107.1917,196.0272 106.5207,195.4052 C105.8467,194.7862 105.3457,194.0572 105.0117,193.2242 C104.6727,192.3912 104.5057,191.4782 104.5057,190.4822 C104.5057,189.3422 104.7087,188.3442 105.1017,187.4822 C105.4937,186.6272 106.0487,185.9152 106.7607,185.3482 C107.4737,184.7772 108.2837,184.3612 109.1947,184.0912 C110.0987,183.8162 111.0597,183.6812 112.0717,183.6812 C113.5727,183.6812 115.2797,184.0192 117.1917,184.6892 L117.1917,188.2142 C116.5317,187.8032 115.8847,187.4652 115.2437,187.1932 C114.5997,186.9222 113.8427,186.7852 112.9777,186.7852 C112.2067,186.7852 111.4857,186.9402 110.8167,187.2452 C110.1447,187.5532 109.6067,187.9882 109.1987,188.5542 C108.7887,189.1192 108.5867,189.7842 108.5867,190.5442 C108.5867,191.2132 108.7657,191.8262 109.1207,192.3842 C109.4747,192.9432 109.9767,193.3832 110.6107,193.7142 C111.2417,194.0422 111.9617,194.2052 112.7587,194.2052 C113.4047,194.2052 114.0117,194.1282 114.5847,193.9692 C115.1587,193.8142 115.6407,193.6402 116.0347,193.4482 C116.4247,193.2582 116.8317,193.0312 117.2437,192.7702 L117.2437,196.1272 Z" id="Fill-41" fill="#FEFEFE"></path>
        <polygon id="Fill-43" fill="#FEFEFE" points="131.8911 197.1282 121.8931 197.1282 121.8931 183.8632 131.7271 183.8632 131.7271 186.5232 125.8931 186.5232 125.8931 188.9602 131.4581 188.9602 131.4581 191.6312 125.8931 191.6312 125.8931 194.4542 131.8911 194.4542"></polygon>
        <polygon id="Fill-45" fill="#FEFEFE" points="150.9282 197.1282 147.3652 197.1282 140.4872 189.7372 140.4872 197.1282 136.5342 197.1282 136.5342 183.8632 140.0762 183.8632 146.9342 191.2142 146.9342 183.8632 150.9282 183.8632"></polygon>
        <polygon id="Fill-47" fill="#FEFEFE" points="168.9336 187.0901 164.0766 187.0901 164.0766 197.1301 160.0796 197.1301 160.0796 187.0901 155.2226 187.0901 155.2226 183.8631 168.9336 183.8631"></polygon>
        <polygon id="Fill-49" fill="#FEFEFE" points="183.2363 197.1282 173.2423 197.1282 173.2423 183.8632 183.0683 183.8632 183.0683 186.5232 177.2303 186.5232 177.2303 188.9602 182.8043 188.9602 182.8043 191.6312 177.2303 191.6312 177.2303 194.4542 183.2363 194.4542"></polygon>
        <path d="M195.2812,188.0579 C195.2812,187.4459 195.0862,187.0159 194.6772,186.7759 C194.2812,186.5329 193.6212,186.4109 192.7182,186.4109 L191.8732,186.4109 L191.8732,189.6109 L192.7342,189.6109 C193.7112,189.6109 194.3832,189.5039 194.7422,189.2899 C195.1012,189.0769 195.2812,188.6649 195.2812,188.0579 Z M200.7182,197.1279 L196.4242,197.1279 L195.3792,194.7739 C194.9942,193.9119 194.6522,193.2849 194.3402,192.8809 C194.0372,192.4849 193.7362,192.2309 193.4492,192.1199 C193.1562,192.0059 192.7792,191.9509 192.3262,191.9509 L191.8732,191.9509 L191.8732,197.1279 L187.8792,197.1279 L187.8792,183.8659 L194.6772,183.8659 C195.7792,183.8659 196.6742,184.0869 197.3852,184.5329 C198.0842,184.9799 198.5842,185.5239 198.8962,186.1609 C199.2072,186.7979 199.3592,187.4049 199.3592,187.9809 C199.3592,188.6509 199.2322,189.2179 198.9702,189.6789 C198.7172,190.1409 198.4412,190.4789 198.1542,190.6869 C197.8732,190.9019 197.5492,191.1029 197.1892,191.2909 C197.6172,191.5409 197.9672,191.8349 198.2482,192.1769 C198.5252,192.5169 198.9042,193.2089 199.3832,194.2489 L200.7182,197.1279 Z" id="Fill-51" fill="#FEFEFE"></path>
        <path d="M6.4741,156.2522 L6.4741,189.7162 C6.4741,189.7162 10.1641,188.3752 13.3821,187.5372 C13.3821,187.5372 7.9391,187.5372 7.4471,182.3432 C6.9501,177.1462 7.1951,158.5462 7.1951,158.5462 C7.1951,158.5462 9.4261,155.1912 14.3721,154.0192 L6.4741,156.2522 Z" id="Fill-53" fill="#231F20"></path>
        <path d="M300.1875,156.5696 L300.1875,190.0336 C300.1875,190.0336 296.4985,188.6906 293.2855,187.8526 C293.2855,187.8526 298.7265,187.8526 299.2225,182.6586 C299.7125,177.4626 299.4685,158.8616 299.4685,158.8616 C299.4685,158.8616 297.2425,155.5076 292.2945,154.3356 L300.1875,156.5696 Z" id="Fill-55" fill="#231F20"></path>
        <path d="M3.3218,200.8645 C3.3218,200.8645 37.8148,186.0315 62.6508,185.3435 C62.6508,185.3435 63.3388,186.7205 65.4078,189.4845 C65.4078,189.4845 29.5358,190.1725 3.3218,200.8645" id="Fill-57" fill="#231F20"></path>
        <path d="M301.6152,200.8645 C301.6152,200.8645 267.1232,186.0315 242.2872,185.3435 C242.2872,185.3435 241.5952,186.7205 239.5312,189.4845 C239.5312,189.4845 275.3982,190.1725 301.6152,200.8645" id="Fill-59" fill="#231F20"></path>
        <path d="M31.0327,169.2337 C31.0327,170.6327 30.7757,171.9107 30.2597,173.0667 C29.7427,174.2237 29.0627,175.2267 28.2177,176.0787 C27.3657,176.9337 26.4547,177.6467 25.4747,178.2217 C24.4927,178.7967 23.5157,179.2447 22.5387,179.5667 C21.1747,180.0197 19.8477,180.2207 18.5587,180.1737 C17.2677,180.1297 16.1907,179.6847 15.3247,178.8427 C14.4557,177.9977 14.0217,176.6687 14.0217,174.8557 L14.0217,165.8417 L18.8757,164.2367 L18.8757,171.9697 C18.8757,173.0457 19.0277,173.8827 19.3357,174.4847 C19.6387,175.0867 20.0657,175.4587 20.6137,175.6047 C21.1587,175.7497 21.8007,175.6997 22.5467,175.4547 C23.2567,175.2187 23.8877,174.8477 24.4367,174.3457 C24.9877,173.8447 25.4137,173.1907 25.7207,172.3917 C26.0267,171.5947 26.1777,170.6557 26.1777,169.5807 L26.1777,161.8247 L31.0327,160.2217 L31.0327,169.2337 Z" id="Fill-61" fill="#231F20"></path>
        <path d="M30.1011,171.093 C30.2181,170.513 30.2761,169.893 30.2761,169.234 L30.2761,161.268 L26.9341,162.37 L26.9341,169.58 C26.9341,170.151 26.8921,170.696 26.8081,171.213 C26.7231,171.737 26.5951,172.22 26.4271,172.66 L26.4241,172.66 C26.2501,173.114 26.0411,173.527 25.7971,173.898 C25.5461,174.279 25.2621,174.615 24.9451,174.905 L24.9431,174.903 C24.6281,175.191 24.2911,175.441 23.9331,175.651 C23.5651,175.865 23.1821,176.04 22.7831,176.172 L22.7801,176.172 C22.3511,176.313 21.9451,176.399 21.5641,176.429 C21.1591,176.46 20.7781,176.429 20.4211,176.335 L20.4181,176.335 C20.0331,176.232 19.6881,176.047 19.3861,175.781 C19.0991,175.53 18.8561,175.21 18.6621,174.823 L18.6631,174.823 C18.4761,174.456 18.3381,174.029 18.2491,173.54 C18.1621,173.068 18.1191,172.544 18.1191,171.97 L18.1191,165.282 L14.7781,166.388 L14.7781,174.856 C14.7781,175.685 14.8741,176.393 15.0651,176.979 C15.2441,177.526 15.5051,177.967 15.8501,178.303 C16.2141,178.656 16.6211,178.926 17.0681,179.111 C17.5241,179.298 18.0291,179.403 18.5821,179.421 L18.5851,179.421 C19.1761,179.442 19.7841,179.406 20.4081,179.31 C21.0281,179.216 21.6601,179.062 22.3031,178.85 C22.7761,178.694 23.2401,178.511 23.6921,178.304 C24.1431,178.097 24.6101,177.852 25.0941,177.57 L25.0951,177.572 C25.5551,177.302 25.9991,176.998 26.4301,176.661 C26.8581,176.326 27.2761,175.954 27.6831,175.546 C28.0751,175.152 28.4271,174.724 28.7391,174.264 C29.0531,173.801 29.3301,173.299 29.5721,172.759 C29.8071,172.231 29.9841,171.675 30.1011,171.093 Z M31.7881,169.234 C31.7881,169.973 31.7181,170.692 31.5781,171.389 C31.4381,172.083 31.2281,172.745 30.9481,173.373 C30.6721,173.989 30.3511,174.569 29.9851,175.11 C29.6161,175.654 29.2051,176.155 28.7521,176.61 C28.3071,177.057 27.8421,177.47 27.3571,177.849 C26.8761,178.226 26.3751,178.567 25.8551,178.872 L25.8551,178.875 C25.3571,179.166 24.8451,179.433 24.3181,179.674 C23.7921,179.915 23.2781,180.119 22.7751,180.284 C22.0531,180.524 21.3381,180.697 20.6331,180.805 C19.9311,180.911 19.2301,180.952 18.5321,180.927 C17.7961,180.902 17.1171,180.761 16.4961,180.505 C15.8661,180.245 15.3001,179.871 14.7981,179.384 C14.2751,178.874 13.8851,178.228 13.6291,177.446 C13.3871,176.703 13.2661,175.839 13.2661,174.856 L13.2661,165.842 L13.2661,165.296 L13.7851,165.124 L18.6391,163.519 L19.6311,163.191 L19.6311,164.237 L19.6311,171.97 C19.6311,172.471 19.6641,172.905 19.7311,173.269 C19.7951,173.616 19.8871,173.908 20.0061,174.142 L20.0091,174.145 C20.1171,174.359 20.2401,174.527 20.3781,174.648 C20.5011,174.755 20.6451,174.832 20.8081,174.875 L20.8081,174.876 C20.9961,174.926 21.2081,174.941 21.4451,174.922 L21.4491,174.922 C21.7091,174.903 21.9971,174.84 22.3101,174.738 L22.3101,174.737 C22.6211,174.634 22.9091,174.505 23.1711,174.351 C23.4421,174.193 23.6951,174.005 23.9291,173.791 L23.9291,173.787 C24.1601,173.577 24.3631,173.338 24.5391,173.071 C24.7241,172.789 24.8841,172.473 25.0181,172.124 L25.0151,172.123 C25.1501,171.769 25.2521,171.384 25.3191,170.971 C25.3881,170.551 25.4221,170.086 25.4221,169.58 L25.4221,161.824 L25.4221,161.279 L25.9411,161.107 L30.7961,159.504 L31.7881,159.177 L31.7881,160.222 L31.7881,169.234 Z" id="Fill-63" fill="#231F20"></path>
        <polygon id="Fill-65" fill="#231F20" points="52.7207 158.0813 46.7087 159.6753 46.7087 172.0343 41.7587 173.3493 41.7587 160.9873 35.7477 162.5833 35.7477 158.6063 52.7207 154.1043"></polygon>
        <path d="M46.5166,158.9456 L51.9646,157.5016 L51.9646,155.0856 L36.5036,159.1876 L36.5036,161.6016 L41.5666,160.2576 L42.5146,160.0066 L42.5146,160.9876 L42.5146,172.3676 L45.9526,171.4556 L45.9526,159.6746 L45.9526,159.0946 L46.5166,158.9456 Z M52.9126,158.8106 L47.4646,160.2556 L47.4646,172.0346 L47.4646,172.6146 L46.9006,172.7646 L41.9506,174.0786 L41.0026,174.3296 L41.0026,173.3486 L41.0026,161.9686 L35.9396,163.3126 L34.9916,163.5646 L34.9916,162.5836 L34.9916,158.6076 L34.9916,158.0276 L35.5556,157.8786 L52.5286,153.3746 L53.4766,153.1236 L53.4766,154.1046 L53.4766,158.0816 L53.4766,158.6616 L52.9126,158.8106 Z" id="Fill-67" fill="#231F20"></path>
        <path d="M66.6011,160.8567 L63.9921,154.9767 L61.3611,162.0237 L66.6011,160.8567 Z M74.7791,165.6867 L69.2831,166.9147 L67.8321,163.6647 L60.1011,165.3867 L58.6261,169.2887 L53.1301,170.5137 L61.0021,151.0707 L66.9341,149.7447 L74.7791,165.6867 Z" id="Fill-69" fill="#231F20"></path>
        <path d="M64.6797,154.6721 L67.2887,160.5531 L67.6617,161.3921 L66.7637,161.5921 L61.5227,162.7591 L60.1697,163.0611 L60.6547,161.7611 L63.2857,154.7141 L63.9307,152.9851 L64.6797,154.6721 Z M65.5407,160.3211 L64.0527,156.9681 L62.5517,160.9871 L65.5407,160.3211 Z M69.7207,166.0451 L73.6797,165.1611 L66.5187,150.6101 L61.5547,151.7191 L54.3687,169.4661 L58.0637,168.6421 L59.3957,165.1211 L59.5397,164.7401 L59.9397,164.6511 L67.6687,162.9291 L68.2687,162.7951 L68.5197,163.3571 L69.7207,166.0451 Z M74.9417,166.4221 L69.4457,167.6501 L68.8457,167.7831 L68.5947,167.2211 L67.3947,164.5331 L60.6637,166.0331 L59.3317,169.5551 L59.1877,169.9351 L58.7887,170.0241 L53.2927,171.2491 L51.8917,171.5621 L52.4297,170.2301 L60.3017,150.7871 L60.4497,150.4221 L60.8387,150.3351 L66.7717,149.0091 L67.3487,148.8801 L67.6107,149.4111 L75.4557,165.3541 L75.8787,166.2131 L74.9417,166.4221 Z" id="Fill-71" fill="#231F20"></path>
        <polygon id="Fill-73" fill="#231F20" points="95.5488 161.6536 90.4308 162.5656 90.4308 155.9406 82.7638 157.3036 82.7638 163.9296 77.6458 164.8406 77.6458 147.8576 82.7638 146.9456 82.7638 153.1946 90.4308 151.8296 90.4308 145.5816 95.5488 144.6716"></polygon>
        <path d="M91.187,161.6634 L94.792,161.0204 L94.792,145.5724 L91.187,146.2154 L91.187,151.8304 L91.187,152.4634 L90.561,152.5744 L82.894,153.9384 L82.008,154.0964 L82.008,153.1944 L82.008,147.8484 L78.401,148.4904 L78.401,163.9384 L82.008,163.2984 L82.008,157.3044 L82.008,156.6714 L82.634,156.5594 L90.301,155.1964 L91.187,155.0384 L91.187,155.9404 L91.187,161.6634 Z M95.679,162.3974 L90.561,163.3094 L89.674,163.4674 L89.674,162.5654 L89.674,156.8424 L83.52,157.9364 L83.52,163.9304 L83.52,164.5624 L82.894,164.6744 L77.775,165.5844 L76.889,165.7414 L76.889,164.8404 L76.889,147.8574 L76.889,147.2254 L77.516,147.1134 L82.634,146.2014 L83.52,146.0444 L83.52,146.9454 L83.52,152.2924 L89.674,151.1974 L89.674,145.5824 L89.674,144.9494 L90.301,144.8384 L95.419,143.9274 L96.305,143.7684 L96.305,144.6714 L96.305,161.6534 L96.305,162.2864 L95.679,162.3974 Z" id="Fill-75" fill="#231F20"></path>
        <path d="M122.0552,151.9905 L119.3962,146.1935 L116.7162,152.5105 L122.0552,151.9905 Z M130.3972,157.4205 L124.7922,157.9615 L123.3122,154.7575 L115.4302,155.5225 L113.9212,159.0175 L108.3182,159.5605 L116.3462,142.1985 L122.3952,141.6155 L130.3972,157.4205 Z" id="Fill-77" fill="#231F20"></path>
        <path d="M120.0815,145.8811 L122.7405,151.6781 L123.1815,152.6381 L122.1255,152.7401 L116.7875,153.2601 L115.5285,153.3821 L116.0225,152.2181 L118.7025,145.9021 L119.3695,144.3281 L120.0815,145.8811 Z M120.9295,151.3431 L119.4225,148.0591 L117.9045,151.6371 L120.9295,151.3431 Z M125.2525,157.1591 L129.2255,156.7761 L121.9545,142.4141 L116.8495,142.9061 L109.5555,158.6851 L113.4035,158.3111 L114.7365,155.2251 L114.9135,154.8161 L115.3595,154.7731 L123.2415,154.0071 L123.7735,153.9551 L123.9975,154.4421 L125.2525,157.1591 Z M130.4675,158.1701 L124.8625,158.7111 L124.3305,158.7631 L124.1065,158.2771 L122.8515,155.5591 L115.9485,156.2301 L114.6155,159.3161 L114.4385,159.7241 L113.9915,159.7681 L108.3895,160.3121 L107.0815,160.4391 L107.6335,159.2451 L115.6605,141.8831 L115.8415,141.4901 L116.2745,141.4481 L122.3245,140.8651 L122.8365,140.8161 L123.0685,141.2761 L131.0705,157.0801 L131.5675,158.0641 L130.4675,158.1701 Z" id="Fill-79" fill="#231F20"></path>
        <polygon id="Fill-81" fill="#231F20" points="148.1021 139.4134 140.3771 157.3544 136.9641 157.5324 129.3841 140.3774 134.7631 140.1014 138.6811 149.8944 142.7111 139.6914"></polygon>
        <path d="M139.8687,156.6253 L146.9287,140.2293 L143.2357,140.4193 L139.3837,150.1733 L138.6847,151.9383 L137.9807,150.1763 L134.2637,140.8833 L130.5177,141.0743 L137.4447,156.7523 L139.8687,156.6253 Z M148.7967,139.7123 L141.0717,157.6523 L140.8857,158.0833 L140.4157,158.1073 L137.0027,158.2863 L136.4827,158.3123 L136.2727,157.8373 L128.6927,140.6823 L128.2507,139.6813 L129.3467,139.6243 L134.7247,139.3493 L135.2637,139.3203 L135.4637,139.8213 L138.6747,147.8523 L142.0087,139.4133 L142.1857,138.9633 L142.6727,138.9383 L148.0637,138.6603 L149.2757,138.5983 L148.7967,139.7123 Z" id="Fill-83" fill="#231F20"></path>
        <path d="M160.4062,151.2122 L157.9162,145.5482 L155.3982,151.1142 L160.4062,151.2122 Z M168.2262,157.1502 L162.9702,157.0472 L161.5842,153.9132 L154.1972,153.7712 L152.7842,156.8502 L147.5302,156.7432 L155.0522,141.5152 L160.7242,141.6262 L168.2262,157.1502 Z" id="Fill-85" fill="#231F20"></path>
        <path d="M158.6074,145.2464 L161.0974,150.9114 L161.5704,151.9884 L160.3904,151.9664 L155.3824,151.8674 L154.2384,151.8454 L154.7094,150.8044 L157.2284,145.2374 L157.9254,143.6954 L158.6074,145.2464 Z M159.2424,150.4354 L157.9064,147.3994 L156.5564,150.3834 L159.2424,150.4354 Z M163.4684,156.3034 L167.0114,156.3734 L160.2464,142.3704 L155.5154,142.2774 L148.7314,156.0154 L152.3064,156.0864 L153.5114,153.4574 L153.7184,153.0084 L154.2094,153.0174 L161.5954,153.1604 L162.0804,153.1704 L162.2754,153.6084 L163.4684,156.3034 Z M168.2114,157.9044 L162.9574,157.8004 L162.4744,157.7904 L162.2794,157.3504 L161.0874,154.6574 L154.6754,154.5334 L153.4704,157.1624 L153.2634,157.6124 L152.7704,157.6024 L147.5154,157.4974 L146.3284,157.4744 L146.8534,156.4104 L154.3754,141.1824 L154.5874,140.7534 L155.0644,140.7624 L160.7384,140.8724 L161.2034,140.8814 L161.4044,141.2984 L168.9044,156.8234 L169.4394,157.9294 L168.2114,157.9044 Z" id="Fill-87" fill="#231F20"></path>
        <polygon id="Fill-89" fill="#231F20" points="185.2539 158.5481 171.5659 157.4381 171.5659 140.1331 176.9959 140.5731 176.9959 153.7361 185.2539 154.4071"></polygon>
        <path d="M172.3223,156.7405 L184.4983,157.7285 L184.4983,155.1045 L176.9373,154.4895 L176.2403,154.4315 L176.2403,153.7355 L176.2403,141.2705 L172.3223,140.9525 L172.3223,156.7405 Z M185.1953,159.3015 L171.5063,158.1905 L170.8103,158.1345 L170.8103,157.4375 L170.8103,140.1335 L170.8103,139.3135 L171.6253,139.3805 L177.0543,139.8205 L177.7523,139.8775 L177.7523,140.5735 L177.7523,153.0395 L185.3143,153.6545 L186.0113,153.7115 L186.0113,154.4075 L186.0113,158.5485 L186.0113,159.3675 L185.1953,159.3015 Z" id="Fill-91" fill="#231F20"></path>
        <path d="M199.8437,153.7854 L197.1617,146.8804 L194.4507,153.0854 L199.8437,153.7854 Z M208.2657,161.6424 L202.6057,160.9054 L201.1137,157.0844 L193.1547,156.0454 L191.6347,159.4754 L185.9747,158.7364 L194.0757,141.8334 L200.1877,142.6284 L208.2657,161.6424 Z" id="Fill-93" fill="#231F20"></path>
        <path d="M197.8652,146.6087 L200.5472,153.5137 L201.0062,154.6957 L199.7502,154.5327 L194.3572,153.8327 L193.3592,153.7027 L193.7602,152.7847 L196.4702,146.5797 L197.2032,144.9037 L197.8652,146.6087 Z M198.6812,152.8757 L197.1212,148.8567 L195.5432,152.4667 L198.6812,152.8757 Z M203.1462,160.2147 L207.0562,160.7247 L199.6622,143.3187 L194.5192,142.6507 L187.1032,158.1247 L191.1722,158.6557 L192.4632,155.7407 L192.6912,155.2247 L193.2522,155.2977 L201.2112,156.3377 L201.6542,156.3947 L201.8162,156.8097 L203.1462,160.2147 Z M208.1682,162.3897 L202.5082,161.6527 L202.0642,161.5937 L201.9022,161.1797 L200.5722,157.7737 L193.6172,156.8657 L192.3262,159.7797 L192.0952,160.2967 L191.5372,160.2227 L185.8772,159.4847 L184.8452,159.3497 L185.2952,158.4127 L193.3962,141.5087 L193.6332,141.0157 L194.1702,141.0867 L200.2812,141.8797 L200.7132,141.9357 L200.8832,142.3327 L208.9592,161.3467 L209.4742,162.5607 L208.1682,162.3897 Z" id="Fill-95" fill="#231F20"></path>
        <polygon id="Fill-97" fill="#231F20" points="230.5859 165.513 225.8769 164.689 216.7679 153.726 216.7679 163.097 211.5349 162.184 211.5349 145.37 216.2249 146.193 225.3089 157.103 225.3089 147.779 230.5859 148.701"></polygon>
        <path d="M226.2754,163.9915 L229.8304,164.6135 L229.8304,149.3365 L226.0644,148.6775 L226.0644,157.1025 L226.0644,159.1865 L224.7304,157.5845 L215.8244,146.8895 L212.2914,146.2705 L212.2914,161.5495 L216.0114,162.1985 L216.0114,153.7255 L216.0114,151.6375 L217.3474,153.2445 L226.2754,163.9915 Z M230.4554,166.2575 L225.7464,165.4325 L225.4764,165.3855 L225.2964,165.1705 L217.5234,155.8135 L217.5234,163.0965 L217.5234,163.9945 L216.6404,163.8415 L211.4084,162.9285 L210.7794,162.8185 L210.7794,162.1835 L210.7794,145.3705 L210.7794,144.4705 L211.6664,144.6265 L216.3534,145.4485 L216.6234,145.4965 L216.8024,145.7125 L224.5524,155.0175 L224.5524,147.7785 L224.5524,146.8795 L225.4394,147.0345 L230.7144,147.9575 L231.3414,148.0665 L231.3414,148.7015 L231.3414,165.5125 L231.3414,166.4125 L230.4554,166.2575 Z" id="Fill-99" fill="#231F20"></path>
        <path d="M251.4453,169.1175 C250.7283,169.3245 249.9943,169.4545 249.2403,169.5085 C248.4903,169.5605 247.7323,169.5495 246.9663,169.4745 C246.2033,169.3985 245.4103,169.2675 244.5913,169.0845 C243.0783,168.7475 241.7223,168.2405 240.5253,167.5645 C239.3243,166.8835 238.2853,166.0515 237.4043,165.0525 C236.5273,164.0595 235.8673,162.9775 235.4273,161.8115 C234.9903,160.6425 234.7713,159.4195 234.7713,158.1405 C234.7713,156.6745 235.0293,155.4475 235.5453,154.4625 C236.0643,153.4715 236.7873,152.7165 237.7183,152.1945 C238.6463,151.6765 239.7113,151.3725 240.8983,151.2895 C242.0913,151.2045 243.3453,151.3125 244.6643,151.6055 C246.6363,152.0445 248.8753,152.9745 251.3753,154.3945 L251.3753,158.9195 C250.5153,158.2015 249.6603,157.5755 248.8223,157.0415 C247.9843,156.5055 246.9923,156.1105 245.8573,155.8555 C244.8473,155.6325 243.9003,155.6185 243.0253,155.8145 C242.1463,156.0135 241.4413,156.4185 240.9043,157.0295 C240.3693,157.6385 240.1033,158.4325 240.1033,159.4085 C240.1033,160.2715 240.3383,161.1115 240.8023,161.9345 C241.2733,162.7595 241.9223,163.4725 242.7543,164.0815 C243.5863,164.6865 244.5213,165.1075 245.5703,165.3435 C246.4103,165.5295 247.2073,165.6085 247.9633,165.5755 C248.7133,165.5435 249.3473,165.4585 249.8613,165.3275 C250.3753,165.1965 250.9043,165.0235 251.4453,164.8095 L251.4453,169.1175 Z" id="Fill-101" fill="#231F20"></path>
        <path d="M250.2266,168.6262 C250.3826,168.5992 250.5376,168.5672 250.6896,168.5322 L250.6896,165.8772 C250.4726,165.9442 250.2576,166.0052 250.0466,166.0592 L250.0466,166.0602 C249.7716,166.1302 249.4536,166.1892 249.0916,166.2362 C248.7536,166.2812 248.3886,166.3132 247.9966,166.3292 C247.5836,166.3472 247.1606,166.3342 246.7246,166.2922 L246.7246,166.2912 C246.2966,166.2502 245.8576,166.1782 245.4086,166.0772 L245.4046,166.0772 C244.8316,165.9492 244.2896,165.7702 243.7736,165.5392 C243.2596,165.3092 242.7716,165.0242 242.3106,164.6882 L242.3066,164.6882 C241.8516,164.3552 241.4416,163.9912 241.0836,163.5972 C240.7226,163.2002 240.4126,162.7702 240.1486,162.3072 C239.8846,161.8412 239.6856,161.3682 239.5526,160.8882 C239.4156,160.3972 239.3476,159.9032 239.3476,159.4082 C239.3476,158.8442 239.4276,158.3202 239.5876,157.8422 C239.7536,157.3512 240.0036,156.9132 240.3356,156.5332 L240.3356,156.5302 C240.6606,156.1622 241.0356,155.8552 241.4606,155.6112 C241.8746,155.3742 242.3416,155.1962 242.8596,155.0792 C243.3536,154.9682 243.8696,154.9172 244.4006,154.9252 C244.9236,154.9322 245.4646,154.9972 246.0196,155.1202 C246.6326,155.2582 247.2056,155.4322 247.7346,155.6442 C248.2656,155.8562 248.7636,156.1102 249.2246,156.4052 L249.2266,156.4032 C249.6546,156.6752 250.0936,156.9772 250.5426,157.3082 L250.6196,157.3632 L250.6196,154.8342 C249.5396,154.2372 248.5096,153.7352 247.5336,153.3292 C246.4496,152.8792 245.4396,152.5492 244.5016,152.3412 C243.8886,152.2042 243.2796,152.1102 242.6716,152.0592 C242.0806,152.0092 241.5056,152.0032 240.9516,152.0422 L240.9476,152.0422 C240.4106,152.0802 239.8966,152.1682 239.4156,152.3052 C238.9436,152.4392 238.4976,152.6232 238.0856,152.8542 C237.6856,153.0782 237.3306,153.3532 237.0216,153.6752 C236.7086,154.0002 236.4396,154.3802 236.2126,154.8132 L236.2106,154.8132 C235.9866,155.2412 235.8186,155.7282 235.7036,156.2732 C235.5856,156.8302 235.5276,157.4532 235.5276,158.1412 C235.5276,158.7372 235.5786,159.3182 235.6796,159.8842 C235.7836,160.4592 235.9336,161.0142 236.1326,161.5472 L236.1326,161.5462 C236.3356,162.0852 236.5916,162.6052 236.8966,163.1052 C237.2036,163.6102 237.5626,164.0942 237.9666,164.5532 C238.3766,165.0172 238.8286,165.4452 239.3186,165.8392 C239.8066,166.2322 240.3336,166.5892 240.8986,166.9082 L240.8966,166.9092 C241.4586,167.2272 242.0606,167.5052 242.7036,167.7452 C243.3496,167.9862 244.0356,168.1892 244.7556,168.3492 C245.1426,168.4362 245.5356,168.5122 245.9256,168.5762 C246.3066,168.6392 246.6796,168.6882 247.0386,168.7252 C247.4046,168.7602 247.7636,168.7802 248.1176,168.7852 C248.4626,168.7902 248.8206,168.7802 249.1876,168.7542 L249.1896,168.7542 C249.5356,168.7302 249.8806,168.6872 250.2266,168.6262 Z M251.6526,169.8442 C251.2696,169.9542 250.8806,170.0452 250.4866,170.1142 C250.0976,170.1832 249.7016,170.2312 249.2926,170.2612 C248.9126,170.2882 248.5136,170.2982 248.0996,170.2922 C247.6976,170.2862 247.2946,170.2642 246.8946,170.2252 L246.8926,170.2252 C246.4946,170.1862 246.0916,170.1322 245.6836,170.0642 C245.2816,169.9982 244.8636,169.9162 244.4296,169.8192 C243.6366,169.6432 242.8866,169.4222 242.1776,169.1572 C241.4646,168.8922 240.7926,168.5792 240.1566,168.2202 L240.1546,168.2202 C239.5176,167.8582 238.9236,167.4572 238.3726,167.0152 C237.8226,166.5722 237.3106,166.0852 236.8396,165.5512 C236.3696,165.0202 235.9586,164.4652 235.6076,163.8912 C235.2536,163.3112 234.9586,162.7052 234.7206,162.0772 L234.7206,162.0742 C234.4846,161.4392 234.3066,160.7972 234.1916,160.1502 L234.1916,160.1472 C234.0746,159.4912 234.0156,158.8222 234.0156,158.1412 C234.0156,157.3602 234.0856,156.6352 234.2266,155.9662 C234.3696,155.2872 234.5856,154.6692 234.8766,154.1132 L234.8766,154.1102 C235.1696,153.5552 235.5216,153.0612 235.9336,152.6302 C236.3496,152.1972 236.8206,151.8322 237.3476,151.5362 C237.8636,151.2472 238.4156,151.0192 239.0016,150.8522 C239.5806,150.6882 240.1956,150.5812 240.8436,150.5362 L240.8436,150.5352 C241.4826,150.4902 242.1346,150.4962 242.7966,150.5532 C243.4456,150.6072 244.1226,150.7142 244.8286,150.8702 C245.8636,151.1012 246.9566,151.4552 248.1116,151.9352 C249.2536,152.4102 250.4666,153.0122 251.7466,153.7382 L252.1306,153.9562 L252.1306,154.3952 L252.1306,158.9192 L252.1306,160.5332 L250.8906,159.4972 C250.4706,159.1472 250.0566,158.8222 249.6506,158.5232 C249.2446,158.2252 248.8316,157.9432 248.4176,157.6792 L248.4176,157.6762 C248.0406,157.4372 247.6266,157.2252 247.1716,157.0432 C246.7106,156.8592 246.2186,156.7082 245.6956,156.5912 C245.2406,156.4902 244.8026,156.4372 244.3826,156.4312 C243.9686,156.4252 243.5706,156.4652 243.1916,156.5502 C242.8286,156.6322 242.5016,156.7572 242.2106,156.9232 C241.9316,157.0832 241.6836,157.2852 241.4706,157.5282 L241.4686,157.5272 C241.2696,157.7552 241.1196,158.0212 241.0176,158.3202 C240.9126,158.6362 240.8596,158.9982 240.8596,159.4082 C240.8596,159.7772 240.9086,160.1372 241.0036,160.4852 C241.1056,160.8462 241.2576,161.2052 241.4586,161.5632 C241.6636,161.9232 241.9126,162.2642 242.2016,162.5812 C242.4926,162.9012 242.8266,163.1982 243.1996,163.4732 L243.1996,163.4742 C243.5686,163.7442 243.9646,163.9742 244.3886,164.1632 C244.8106,164.3532 245.2596,164.5002 245.7346,164.6072 C246.1226,164.6932 246.5016,164.7562 246.8696,164.7912 L246.8726,164.7912 C247.2346,164.8272 247.5876,164.8372 247.9296,164.8222 L247.9336,164.8222 C248.2836,164.8082 248.6056,164.7802 248.8966,164.7422 C249.1716,164.7062 249.4316,164.6562 249.6736,164.5952 L249.6776,164.5952 C249.9176,164.5332 250.1626,164.4632 250.4066,164.3842 C250.6566,164.3022 250.9126,164.2092 251.1716,164.1072 L252.2036,163.7012 L252.2036,164.8102 L252.2036,169.1172 L252.2036,169.6862 L251.6526,169.8442 Z" id="Fill-103" fill="#231F20"></path>
        <polygon id="Fill-105" fill="#231F20" points="273.3848 176.1223 268.4588 174.7323 268.4588 168.2073 261.0158 166.1063 261.0158 172.6313 256.0918 171.2413 256.0918 154.5123 261.0158 155.8993 261.0158 162.0573 268.4588 164.1573 268.4588 158.0023 273.3848 159.3893"></polygon>
        <path d="M269.2168,174.1614 L272.6288,175.1254 L272.6288,159.9604 L269.2168,158.9994 L269.2168,164.1574 L269.2168,165.1554 L268.2558,164.8844 L260.8128,162.7834 L260.2598,162.6274 L260.2598,162.0574 L260.2598,156.4714 L256.8478,155.5094 L256.8478,170.6714 L260.2598,171.6344 L260.2598,166.1064 L260.2598,165.1084 L261.2208,165.3804 L268.6638,167.4794 L269.2168,167.6364 L269.2168,168.2064 L269.2168,174.1614 Z M273.1798,176.8494 L268.2558,175.4594 L267.7028,175.3034 L267.7028,174.7324 L267.7028,168.7774 L261.7718,167.1034 L261.7718,172.6314 L261.7718,173.6294 L260.8128,173.3574 L255.8868,171.9684 L255.3338,171.8114 L255.3338,171.2414 L255.3338,154.5124 L255.3338,153.5154 L256.2948,153.7854 L261.2208,155.1734 L261.7718,155.3294 L261.7718,155.8994 L261.7718,161.4864 L267.7028,163.1604 L267.7028,158.0024 L267.7028,157.0054 L268.6638,157.2754 L273.5878,158.6624 L274.1408,158.8174 L274.1408,159.3894 L274.1408,176.1224 L274.1408,177.1204 L273.1798,176.8494 Z" id="Fill-107" fill="#231F20"></path>
        <polygon id="Fill-109" fill="#231F20" points="291.332 182.5003 279.244 178.3843 279.244 162.0493 291.133 166.0953 291.133 169.3733 284.074 166.9693 284.074 169.9503 290.809 172.2463 290.809 175.5433 284.074 173.2513 284.074 176.7303 291.332 179.2003"></polygon>
        <path d="M280,177.844 L290.574,181.445 L290.574,179.74 L283.832,177.446 L283.318,177.271 L283.318,176.731 L283.318,173.251 L283.318,172.197 L284.316,172.536 L290.053,174.489 L290.053,172.785 L283.832,170.665 L283.318,170.49 L283.318,169.95 L283.318,166.969 L283.318,165.914 L284.316,166.254 L290.375,168.319 L290.375,166.635 L280,163.104 L280,177.844 Z M291.09,183.214 L279.002,179.099 L278.488,178.924 L278.488,178.384 L278.488,162.049 L278.488,160.994 L279.486,161.334 L291.373,165.38 L291.887,165.555 L291.887,166.095 L291.887,169.373 L291.887,170.428 L290.889,170.088 L284.83,168.024 L284.83,169.411 L291.051,171.532 L291.564,171.706 L291.564,172.246 L291.564,175.543 L291.564,176.598 L290.566,176.258 L284.83,174.306 L284.83,176.191 L291.574,178.486 L292.088,178.66 L292.088,179.2 L292.088,182.5 L292.088,183.554 L291.09,183.214 Z" id="Fill-111" fill="#231F20"></path>
        <path d="M29.2114,167.3958 C29.2114,168.8708 28.9514,170.2178 28.4284,171.4368 C27.9104,172.6578 27.2244,173.7168 26.3654,174.6168 C25.5114,175.5188 24.5864,176.2718 23.5974,176.8798 C22.6094,177.4878 21.6204,177.9598 20.6354,178.2978 C19.2614,178.7748 17.9204,178.9898 16.6194,178.9408 C15.3164,178.8928 14.2284,178.4248 13.3544,177.5348 C12.4774,176.6418 12.0384,175.2428 12.0384,173.3268 L12.0384,163.8158 L16.9394,162.1248 L16.9394,170.2838 C16.9394,171.4168 17.0924,172.3018 17.4004,172.9358 C17.7104,173.5698 18.1404,173.9638 18.6914,174.1168 C19.2404,174.2698 19.8934,174.2188 20.6434,173.9598 C21.3634,173.7098 21.9984,173.3208 22.5534,172.7878 C23.1074,172.2578 23.5404,171.5718 23.8484,170.7278 C24.1554,169.8848 24.3134,168.8958 24.3134,167.7608 L24.3134,159.5768 L29.2114,157.8858 L29.2114,167.3958 Z" id="Fill-113" fill="#FEFEFE"></path>
        <path d="M27.9033,169.2991 C28.0193,168.7021 28.0763,168.0681 28.0763,167.3961 L28.0763,159.4721 L25.4473,160.3801 L25.4473,167.7611 C25.4473,168.3651 25.4023,168.9521 25.3133,169.5221 C25.2233,170.0961 25.0883,170.6271 24.9113,171.1131 C24.7293,171.6121 24.5083,172.0671 24.2513,172.4771 C23.9863,172.8991 23.6813,173.2741 23.3383,173.6031 C23.0013,173.9271 22.6383,174.2081 22.2503,174.4461 C21.8653,174.6831 21.4543,174.8761 21.0163,175.0281 L21.0113,175.0331 C20.5483,175.1921 20.1043,175.2891 19.6813,175.3231 C19.2283,175.3591 18.7963,175.3201 18.3903,175.2071 C17.9433,175.0831 17.5443,174.8611 17.1943,174.5401 C16.8663,174.2411 16.5953,173.8711 16.3813,173.4321 C16.1813,173.0221 16.0333,172.5401 15.9373,171.9891 C15.8493,171.4781 15.8043,170.9081 15.8043,170.2831 L15.8043,163.7161 L13.1733,164.6231 L13.1733,173.3261 C13.1733,174.1731 13.2653,174.8901 13.4493,175.4771 C13.6143,176.0051 13.8513,176.4261 14.1613,176.7401 C14.4913,177.0781 14.8633,177.3351 15.2743,177.5131 C15.6933,177.6931 16.1553,177.7921 16.6593,177.8111 C17.2373,177.8311 17.8253,177.7951 18.4223,177.6991 C19.0293,177.6031 19.6463,177.4461 20.2683,177.2321 L20.2683,177.2271 C20.7403,177.0651 21.1953,176.8781 21.6313,176.6691 C22.0643,176.4621 22.5223,176.2091 23.0033,175.9131 C23.4573,175.6351 23.8973,175.3211 24.3203,174.9771 C24.7633,174.6131 25.1733,174.2351 25.5463,173.8401 L25.5463,173.8361 C25.9283,173.4361 26.2723,173.0001 26.5763,172.5311 C26.8853,172.0551 27.1553,171.5431 27.3863,170.9981 L27.3863,170.9931 C27.6163,170.4591 27.7883,169.8931 27.9033,169.2991 Z M30.3453,167.3961 C30.3453,168.1971 30.2733,168.9751 30.1283,169.7251 C29.9833,170.4771 29.7623,171.1961 29.4693,171.8801 L29.4683,171.8791 C29.1823,172.5531 28.8503,173.1821 28.4733,173.7631 C28.0903,174.3541 27.6613,174.8991 27.1853,175.3961 L27.1833,175.3941 C26.7063,175.8991 26.2303,176.3441 25.7563,176.7321 C25.2523,177.1441 24.7293,177.5151 24.1913,177.8461 C23.6873,178.1551 23.1583,178.4441 22.6063,178.7081 C22.0523,178.9741 21.5173,179.1951 21.0043,179.3721 L21.0023,179.3681 C20.2493,179.6281 19.5073,179.8171 18.7763,179.9331 C18.0353,180.0521 17.3023,180.0981 16.5803,180.0701 C15.7813,180.0421 15.0483,179.8831 14.3783,179.5961 C13.7013,179.3041 13.0903,178.8811 12.5483,178.3271 C11.9803,177.7501 11.5593,177.0251 11.2863,176.1511 C11.0313,175.3371 10.9033,174.3961 10.9033,173.3261 L10.9033,163.8161 L10.9033,163.0071 L11.6713,162.7421 L16.5713,161.0531 L18.0733,160.5341 L18.0733,162.1251 L18.0733,170.2831 C18.0733,170.7921 18.1063,171.2341 18.1713,171.6091 C18.2283,171.9401 18.3113,172.2181 18.4203,172.4391 C18.5143,172.6331 18.6143,172.7791 18.7183,172.8741 C18.7983,172.9461 18.8903,172.9981 18.9933,173.0271 C19.1363,173.0661 19.3073,173.0781 19.5043,173.0631 C19.7323,173.0441 19.9903,172.9861 20.2763,172.8881 L20.2773,172.8901 C20.5553,172.7931 20.8203,172.6671 21.0703,172.5141 C21.3183,172.3621 21.5513,172.1811 21.7693,171.9721 L21.7743,171.9671 C21.9823,171.7681 22.1703,171.5351 22.3363,171.2721 C22.5083,170.9971 22.6583,170.6871 22.7843,170.3431 C22.9153,169.9841 23.0143,169.5941 23.0793,169.1761 C23.1453,168.7591 23.1773,168.2871 23.1773,167.7611 L23.1773,159.5761 L23.1773,158.7731 L23.9453,158.5081 L28.8433,156.8181 L30.3453,156.2991 L30.3453,157.8861 L30.3453,167.3961 Z" id="Fill-115" fill="#FEFEFE"></path>
        <polygon id="Fill-117" fill="#FEFEFE" points="50.8057 155.9925 44.7337 157.6735 44.7337 170.7155 39.7417 172.1005 39.7417 159.0575 33.6697 160.7425 33.6697 156.5445 50.8057 151.7955"></polygon>
        <path d="M44.4326,156.5823 L49.6706,155.1333 L49.6706,153.2833 L34.8046,157.4033 L34.8046,159.2543 L39.4396,157.9683 L40.8756,157.5693 L40.8756,159.0583 L40.8756,170.6123 L43.5996,169.8553 L43.5996,157.6733 L43.5996,156.8123 L44.4326,156.5823 Z M51.1066,157.0823 L45.8686,158.5323 L45.8686,170.7153 L45.8686,171.5743 L45.0356,171.8063 L40.0426,173.1903 L38.6066,173.5893 L38.6066,172.1013 L38.6066,160.5473 L33.9716,161.8333 L32.5356,162.2313 L32.5356,160.7423 L32.5356,156.5443 L32.5356,155.6853 L33.3686,155.4543 L50.5036,150.7043 L51.9406,150.3073 L51.9406,151.7953 L51.9406,155.9923 L51.9406,156.8523 L51.1066,157.0823 Z" id="Fill-119" fill="#FEFEFE"></path>
        <path d="M64.1616,159.4251 L61.7056,153.6961 L59.2266,160.5641 L64.1616,159.4251 Z M71.8626,164.1351 L66.6876,165.3281 L65.3236,162.1611 L58.0426,163.8411 L56.6536,167.6451 L51.4766,168.8371 L58.8896,149.8891 L64.4756,148.6001 L71.8626,164.1351 Z" id="Fill-121" fill="#FEFEFE"></path>
        <path d="M62.7471,153.2542 L65.2031,158.9822 L65.7351,160.2232 L64.4141,160.5282 L59.4791,161.6682 L57.4591,162.1342 L58.1641,160.1832 L60.6421,153.3162 L61.6171,150.6162 L62.7471,153.2542 Z M62.5871,158.6262 L61.7951,156.7772 L60.9951,158.9942 L62.5871,158.6262 Z M67.3551,164.0122 L70.2351,163.3482 L63.8441,149.9072 L59.7261,150.8582 L53.3121,167.2522 L55.8021,166.6792 L56.9781,163.4562 L57.1901,162.8762 L57.7891,162.7372 L65.0711,161.0582 L65.9911,160.8452 L66.3651,161.7142 L67.3551,164.0122 Z M72.1151,165.2382 L66.9401,166.4322 L66.0201,166.6442 L65.6461,165.7752 L64.6561,163.4782 L58.8941,164.8072 L57.7171,168.0292 L57.5051,168.6092 L56.9061,168.7482 L51.7291,169.9412 L49.6411,170.4222 L50.4221,168.4252 L57.8341,149.4772 L58.0521,148.9202 L58.6371,148.7852 L64.2231,147.4962 L65.1071,147.2922 L65.4991,148.1162 L72.8861,163.6512 L73.4901,164.9212 L72.1151,165.2382 Z" id="Fill-123" fill="#FEFEFE"></path>
        <polygon id="Fill-125" fill="#FEFEFE" points="93.8506 160.0901 88.7386 161.0161 88.7386 154.2921 81.0796 155.6761 81.0796 162.3991 75.9666 163.3261 75.9666 146.0861 81.0796 145.1621 81.0796 151.5051 88.7386 150.1181 88.7386 143.7781 93.8506 142.8521"></polygon>
        <path d="M89.873,159.6614 L92.716,159.1464 L92.716,144.2054 L89.873,144.7214 L89.873,150.1184 L89.873,151.0604 L88.938,151.2304 L81.279,152.6174 L79.945,152.8584 L79.945,151.5054 L79.945,146.5154 L77.101,147.0294 L77.101,161.9724 L79.945,161.4564 L79.945,155.6764 L79.945,154.7314 L80.88,154.5634 L88.539,153.1804 L89.873,152.9394 L89.873,154.2934 L89.873,159.6614 Z M94.05,161.2024 L88.938,162.1284 L87.603,162.3694 L87.603,161.0154 L87.603,155.6464 L82.214,156.6194 L82.214,162.3984 L82.214,163.3424 L81.279,163.5124 L76.165,164.4394 L74.831,164.6814 L74.831,163.3264 L74.831,146.0864 L74.831,145.1414 L75.767,144.9734 L80.88,144.0504 L82.214,143.8074 L82.214,145.1614 L82.214,150.1504 L87.603,149.1754 L87.603,143.7774 L87.603,142.8344 L88.539,142.6654 L93.651,141.7394 L94.985,141.4974 L94.985,142.8514 L94.985,160.0904 L94.985,161.0324 L94.05,161.2024 Z" id="Fill-127" fill="#FEFEFE"></path>
        <path d="M120.2559,150.1966 L117.7529,144.1706 L115.2239,150.7346 L120.2559,150.1966 Z M128.1099,155.8386 L122.8349,156.4036 L121.4409,153.0736 L114.0139,153.8686 L112.5959,157.5026 L107.3179,158.0666 L114.8789,140.0186 L120.5769,139.4066 L128.1099,155.8386 Z" id="Fill-129" fill="#FEFEFE"></path>
        <path d="M118.7983,143.7356 L121.3013,149.7616 L121.8823,151.1606 L120.3753,151.3226 L115.3433,151.8596 L113.5033,152.0556 L114.1693,150.3266 L116.6973,143.7626 L117.7143,141.1256 L118.7983,143.7356 Z M118.6283,149.2316 L117.7913,147.2146 L116.9453,149.4116 L118.6283,149.2316 Z M123.5533,155.1886 L126.4273,154.8816 L119.8883,140.6186 L115.6653,141.0726 L109.1023,156.7376 L111.7913,156.4506 L112.9593,153.4566 L113.2083,152.8166 L113.8943,152.7426 L121.3203,151.9486 L122.1583,151.8586 L122.4863,152.6386 L123.5533,155.1886 Z M128.2303,156.9646 L122.9543,157.5296 L122.1153,157.6186 L121.7883,156.8386 L120.7213,154.2896 L114.8193,154.9216 L113.6513,157.9156 L113.4013,158.5546 L112.7153,158.6286 L107.4373,159.1916 L105.5333,159.3946 L106.2723,157.6316 L113.8333,139.5846 L114.0923,138.9646 L114.7593,138.8926 L120.4573,138.2816 L121.2643,138.1946 L121.6053,138.9366 L129.1383,155.3696 L129.7933,156.7976 L128.2303,156.9646 Z" id="Fill-131" fill="#FEFEFE"></path>
        <polygon id="Fill-133" fill="#FEFEFE" points="147.2764 137.6116 139.5384 155.4616 136.1224 155.6356 128.5294 138.5716 133.9164 138.2966 137.8434 148.0396 141.8794 137.8876"></polygon>
        <path d="M138.7812,154.3665 L145.5152,138.8345 L142.6602,138.9815 L138.8932,148.4555 L137.8482,151.0815 L136.7922,148.4605 L133.1682,139.4675 L130.2332,139.6175 L136.8392,154.4665 L138.7812,154.3665 Z M148.3132,138.0585 L140.5742,155.9085 L140.2942,156.5545 L139.5952,156.5915 L136.1802,156.7655 L135.4062,156.8055 L135.0902,156.0965 L127.4972,139.0325 L126.8272,137.5255 L128.4722,137.4415 L133.8582,137.1655 L134.6632,137.1245 L134.9662,137.8745 L137.8362,144.9965 L140.8292,137.4715 L141.0982,136.7955 L141.8222,136.7585 L147.2192,136.4805 L149.0382,136.3875 L148.3132,138.0585 Z" id="Fill-135" fill="#FEFEFE"></path>
        <path d="M160.6719,148.5764 L158.1579,142.2264 L155.6149,148.4654 L160.6719,148.5764 Z M168.5679,155.2324 L163.2639,155.1174 L161.8609,151.6054 L154.4019,151.4434 L152.9769,154.8944 L147.6719,154.7784 L155.2679,137.7064 L160.9939,137.8314 L168.5679,155.2324 Z" id="Fill-137" fill="#FEFEFE"></path>
        <path d="M159.2129,141.8098 L161.7269,148.1608 L162.3539,149.7448 L160.6499,149.7068 L155.5939,149.5948 L153.9449,149.5588 L154.5649,148.0388 L157.1079,141.8008 L158.1739,139.1858 L159.2129,141.8098 Z M158.9899,147.4098 L158.1429,145.2678 L157.2849,147.3718 L158.9899,147.4098 Z M164.0349,154.0028 L166.8259,154.0638 L160.2459,138.9458 L155.9939,138.8528 L149.3959,153.6858 L152.2269,153.7478 L153.3579,151.0128 L153.6519,150.2958 L154.4259,150.3128 L161.8829,150.4748 L162.6329,150.4918 L162.9119,151.1888 L164.0349,154.0028 Z M168.5449,156.3618 L163.2399,156.2478 L162.4899,156.2308 L162.2129,155.5338 L161.0899,152.7188 L155.1519,152.5898 L154.0239,155.3248 L153.7269,156.0408 L152.9549,156.0248 L147.6499,155.9088 L145.9479,155.8718 L146.6399,154.3178 L154.2339,137.2458 L154.5389,136.5598 L155.2889,136.5768 L161.0159,136.7008 L161.7419,136.7158 L162.0309,137.3788 L169.6039,154.7798 L170.3089,156.3998 L168.5449,156.3618 Z" id="Fill-139" fill="#FEFEFE"></path>
        <polygon id="Fill-141" fill="#FEFEFE" points="185.7617 156.7395 172.7537 155.6345 172.7537 138.3935 177.9137 138.8345 177.9137 151.9495 185.7617 152.6155"></polygon>
        <path d="M173.8887,154.593 L184.6267,155.505 L184.6267,153.657 L177.8227,153.079 L176.7817,152.99 L176.7817,151.949 L176.7817,139.876 L173.8887,139.629 L173.8887,154.593 Z M185.6677,157.869 L172.6597,156.764 L171.6187,156.676 L171.6187,155.634 L171.6187,138.394 L171.6187,137.159 L172.8477,137.264 L178.0077,137.704 L179.0487,137.793 L179.0487,138.834 L179.0487,150.907 L185.8557,151.486 L186.8967,151.574 L186.8967,152.615 L186.8967,156.739 L186.8967,157.974 L185.6677,157.869 Z" id="Fill-143" fill="#FEFEFE"></path>
        <path d="M201.1641,152.2014 L198.6721,145.5694 L196.1501,151.5274 L201.1641,152.2014 Z M208.9901,159.7394 L203.7321,159.0324 L202.3441,155.3634 L194.9471,154.3684 L193.5311,157.6604 L188.2751,156.9524 L195.8071,140.7244 L201.4841,141.4904 L208.9901,159.7394 Z" id="Fill-145" fill="#FEFEFE"></path>
        <path d="M199.7305,145.1712 L202.2225,151.8022 L202.8885,153.5742 L201.0135,153.3222 L196.0005,152.6492 L194.5335,152.4512 L195.1095,151.0892 L197.6305,145.1312 L198.7365,142.5212 L199.7305,145.1712 Z M199.4395,150.8272 L198.6095,148.6192 L197.7695,150.6042 L199.4395,150.8272 Z M204.5525,158.0012 L207.1995,158.3582 L200.6855,142.5252 L196.4825,141.9572 L189.9495,156.0362 L192.8305,156.4242 L193.9065,153.9202 L194.2465,153.1322 L195.0975,153.2472 L202.4945,154.2422 L203.1645,154.3322 L203.4025,154.9652 L204.5525,158.0012 Z M208.8395,160.8602 L203.5805,160.1542 L202.9125,160.0642 L202.6715,159.4322 L201.5235,156.3952 L195.6505,155.6042 L194.5745,158.1092 L194.2345,158.8972 L193.3825,158.7822 L188.1235,158.0732 L186.6015,157.8682 L187.2465,156.4782 L194.7795,140.2502 L195.1305,139.4922 L195.9575,139.6042 L201.6345,140.3692 L202.2815,140.4562 L202.5295,141.0612 L210.0375,159.3102 L210.7815,161.1212 L208.8395,160.8602 Z" id="Fill-147" fill="#FEFEFE"></path>
        <polygon id="Fill-149" fill="#FEFEFE" points="231.5234 163.8342 226.9824 162.9882 218.2034 151.7482 218.2034 161.3582 213.1604 160.4202 213.1604 143.1812 217.6794 144.0222 226.4314 155.2102 226.4314 145.6492 231.5234 146.5952"></polygon>
        <path d="M227.6094,161.9544 L230.3884,162.4724 L230.3884,147.5354 L227.5664,147.0114 L227.5664,155.2104 L227.5664,158.4944 L225.5414,155.9054 L217.0524,145.0564 L214.2954,144.5424 L214.2954,159.4804 L217.0704,159.9974 L217.0704,151.7484 L217.0704,148.4594 L219.0954,151.0524 L227.6094,161.9544 Z M231.3204,164.9464 L226.7794,164.1004 L226.3554,164.0214 L226.0914,163.6834 L219.3384,155.0374 L219.3384,161.3584 L219.3384,162.7204 L218.0004,162.4714 L212.9574,161.5324 L212.0254,161.3584 L212.0254,160.4204 L212.0254,143.1814 L212.0254,141.8194 L213.3634,142.0684 L217.8824,142.9094 L218.3044,142.9874 L218.5704,143.3254 L225.2964,151.9254 L225.2964,145.6504 L225.2964,144.2894 L226.6364,144.5384 L231.7284,145.4824 L232.6584,145.6554 L232.6584,146.5954 L232.6584,163.8344 L232.6584,165.1954 L231.3204,164.9464 Z" id="Fill-151" fill="#FEFEFE"></path>
        <path d="M252.584,167.3889 C251.893,167.5999 251.186,167.7289 250.459,167.7829 C249.732,167.8369 249.002,167.8259 248.268,167.7459 C247.531,167.6699 246.766,167.5389 245.977,167.3549 C244.52,167.0129 243.215,166.4989 242.059,165.8189 C240.904,165.1279 239.902,164.2849 239.053,163.2779 C238.203,162.2729 237.572,161.1809 237.15,159.9969 C236.729,158.8179 236.514,157.5819 236.514,156.2869 C236.514,154.8049 236.766,153.5639 237.264,152.5659 C237.76,151.5669 238.459,150.8039 239.357,150.2779 C240.252,149.7469 241.271,149.4439 242.42,149.3609 C243.566,149.2739 244.777,149.3829 246.051,149.6809 C247.951,150.1249 250.104,151.0639 252.514,152.4959 L252.514,157.0759 C251.682,156.3509 250.863,155.7169 250.053,155.1739 C249.244,154.6329 248.291,154.2359 247.197,153.9769 C246.225,153.7489 245.313,153.7379 244.467,153.9359 C243.621,154.1369 242.943,154.5449 242.426,155.1639 C241.91,155.7819 241.65,156.5839 241.65,157.5729 C241.65,158.4429 241.877,159.2929 242.328,160.1249 C242.779,160.9569 243.408,161.6819 244.209,162.2969 C245.008,162.9079 245.912,163.3329 246.92,163.5699 C247.732,163.7589 248.5,163.8379 249.227,163.8059 C249.953,163.7719 250.563,163.6879 251.059,163.5539 C251.551,163.4239 252.063,163.2479 252.584,163.0329 L252.584,167.3889 Z" id="Fill-153" fill="#FEFEFE"></path>
        <path d="M251.3301,166.5325 L251.4511,166.5095 L251.4511,164.6205 L251.3501,164.6475 L251.3501,164.6485 C251.0661,164.7245 250.7421,164.7885 250.3791,164.8385 C250.0431,164.8855 249.6761,164.9175 249.2811,164.9355 L249.2751,164.9355 C248.8571,164.9545 248.4281,164.9405 247.9901,164.8965 C247.5551,164.8515 247.1131,164.7775 246.6681,164.6735 L246.6621,164.6735 C246.0901,164.5395 245.5391,164.3465 245.0081,164.0965 C244.4761,163.8475 243.9801,163.5475 243.5211,163.1965 C243.0601,162.8435 242.6461,162.4545 242.2811,162.0325 C241.9161,161.6105 241.6011,161.1545 241.3361,160.6655 L241.3301,160.6655 C241.0661,160.1775 240.8631,159.6715 240.7251,159.1505 C240.5861,158.6255 240.5161,158.0985 240.5161,157.5725 C240.5161,156.9675 240.6011,156.4045 240.7671,155.8845 C240.9431,155.3405 241.2071,154.8575 241.5571,154.4385 L241.5591,154.4395 C241.9021,154.0275 242.2951,153.6885 242.7381,153.4225 C243.1801,153.1565 243.6701,152.9595 244.2051,152.8325 L244.2091,152.8325 C244.7151,152.7145 245.2461,152.6585 245.8011,152.6665 C246.3481,152.6745 246.8981,152.7435 247.4531,152.8735 C248.0601,153.0165 248.6331,153.1995 249.1661,153.4235 C249.7051,153.6495 250.2111,153.9205 250.6821,154.2345 C250.9161,154.3905 251.1481,154.5535 251.3791,154.7205 L251.3791,153.1455 C250.4161,152.5945 249.5021,152.1315 248.6391,151.7555 C247.6311,151.3165 246.6821,150.9925 245.7931,150.7845 C245.2111,150.6485 244.6411,150.5545 244.0841,150.5065 C243.5371,150.4575 243.0101,150.4525 242.5041,150.4905 L242.4981,150.4905 C242.0101,150.5255 241.5491,150.6075 241.1171,150.7365 C240.6951,150.8635 240.2991,151.0355 239.9321,151.2525 L239.9281,151.2525 C239.5741,151.4595 239.2641,151.7115 238.9921,152.0075 C238.7191,152.3055 238.4801,152.6595 238.2791,153.0665 L238.2791,153.0705 C238.0701,153.4895 237.9121,153.9565 237.8101,154.4695 C237.7031,155.0005 237.6481,155.6065 237.6481,156.2875 C237.6481,156.8775 237.6951,157.4465 237.7911,157.9955 C237.8851,158.5435 238.0271,159.0835 238.2191,159.6165 L238.2191,159.6215 C238.4041,160.1465 238.6391,160.6515 238.9201,161.1365 C239.2031,161.6245 239.5371,162.0945 239.9181,162.5455 L239.9181,162.5505 C240.2931,162.9955 240.7111,163.4135 241.1721,163.8025 C241.6271,164.1875 242.1151,164.5345 242.6351,164.8455 L242.6371,164.8435 C243.1621,165.1535 243.7231,165.4265 244.3201,165.6605 C244.9181,165.8945 245.5571,166.0925 246.2321,166.2515 C246.6111,166.3395 246.9781,166.4145 247.3381,166.4755 C247.7071,166.5385 248.0571,166.5875 248.3831,166.6205 L248.3891,166.6205 C248.7321,166.6585 249.0641,166.6785 249.3811,166.6845 C249.6911,166.6895 250.0231,166.6785 250.3751,166.6525 L250.3811,166.6525 C250.7111,166.6285 251.0291,166.5885 251.3301,166.5325 Z M252.9121,168.4705 C252.5211,168.5905 252.1291,168.6845 251.7381,168.7575 C251.3341,168.8315 250.9351,168.8835 250.5451,168.9125 C250.1681,168.9405 249.7681,168.9515 249.3461,168.9445 C248.9351,168.9375 248.5351,168.9135 248.1481,168.8725 L248.1481,168.8715 C247.7441,168.8305 247.3461,168.7755 246.9571,168.7095 C246.5471,168.6385 246.1351,168.5545 245.7191,168.4585 C244.9411,168.2755 244.1991,168.0465 243.4961,167.7695 C242.7851,167.4905 242.1131,167.1645 241.4841,166.7935 L241.4781,166.7885 C240.8441,166.4105 240.2541,165.9915 239.7111,165.5315 C239.1701,165.0755 238.6641,164.5675 238.1911,164.0065 L238.1891,164.0085 C237.7231,163.4555 237.3121,162.8765 236.9611,162.2715 C236.6091,161.6655 236.3161,161.0345 236.0841,160.3785 L236.0821,160.3795 C235.8511,159.7315 235.6761,159.0635 235.5571,158.3765 C235.4391,157.6885 235.3791,156.9925 235.3791,156.2875 C235.3791,155.4885 235.4511,154.7335 235.5941,154.0255 C235.7401,153.2965 235.9591,152.6395 236.2481,152.0595 L236.2501,152.0605 C236.5431,151.4715 236.9021,150.9455 237.3261,150.4825 C237.7521,150.0165 238.2361,149.6245 238.7811,149.3035 L238.7791,149.3025 C239.3091,148.9905 239.8711,148.7445 240.4711,148.5655 C241.0571,148.3895 241.6801,148.2785 242.3341,148.2305 L242.3341,148.2295 C242.9711,148.1815 243.6211,148.1875 244.2791,148.2455 C244.9351,148.3035 245.6131,148.4155 246.3071,148.5775 C247.3181,148.8135 248.3961,149.1815 249.5431,149.6805 C250.6681,150.1725 251.8511,150.7855 253.0901,151.5215 L253.6481,151.8525 L253.6481,152.4965 L253.6481,157.0765 L253.6481,159.5685 L251.7691,157.9285 C251.3771,157.5855 250.9801,157.2595 250.5841,156.9525 C250.1911,156.6485 249.8051,156.3685 249.4241,156.1135 C249.0841,155.8865 248.7091,155.6875 248.2971,155.5145 C247.8791,155.3405 247.4261,155.1945 246.9391,155.0805 C246.5231,154.9835 246.1351,154.9315 245.7731,154.9275 C245.4181,154.9215 245.0681,154.9595 244.7281,155.0385 L244.7281,155.0395 C244.4181,155.1135 244.1441,155.2205 243.9081,155.3635 C243.6701,155.5065 243.4671,155.6805 243.2951,155.8865 L243.2951,155.8915 C243.1291,156.0895 243.0041,156.3165 242.9221,156.5755 C242.8321,156.8565 242.7851,157.1885 242.7851,157.5725 C242.7851,157.9165 242.8281,158.2505 242.9141,158.5745 C243.0021,158.9045 243.1391,159.2415 243.3241,159.5845 L243.3221,159.5865 C243.5081,159.9285 243.7301,160.2505 243.9921,160.5525 C244.2541,160.8535 244.5551,161.1365 244.8961,161.3975 C245.2341,161.6575 245.5921,161.8755 245.9651,162.0505 C246.3381,162.2245 246.7421,162.3645 247.1781,162.4665 L247.1761,162.4675 C247.5411,162.5525 247.8891,162.6115 248.2211,162.6455 C248.5511,162.6785 248.8691,162.6885 249.1741,162.6765 C249.5021,162.6605 249.8051,162.6335 250.0781,162.5955 C250.3241,162.5625 250.5531,162.5165 250.7661,162.4595 L250.7691,162.4595 C250.9821,162.4035 251.2091,162.3345 251.4451,162.2535 C251.6931,162.1685 251.9301,162.0795 252.1541,161.9865 L253.7191,161.3395 L253.7191,163.0325 L253.7191,167.3885 L253.7191,168.2255 L252.9121,168.4705 Z" id="Fill-155" fill="#FEFEFE"></path>
        <polygon id="Fill-157" fill="#FEFEFE" points="275.2402 175.0286 270.2712 173.5976 270.2712 166.8726 262.7562 164.7106 262.7562 171.4326 257.7852 170.0016 257.7852 152.7616 262.7562 154.1946 262.7562 160.5356 270.2712 162.6996 270.2712 156.3576 275.2402 157.7886"></polygon>
        <path d="M271.4082,172.7454 L274.1052,173.5224 L274.1052,158.6414 L271.4082,157.8644 L271.4082,162.6994 L271.4082,164.2064 L269.9632,163.7904 L262.4452,161.6254 L261.6212,161.3884 L261.6212,160.5354 L261.6212,155.0424 L258.9202,154.2644 L258.9202,169.1524 L261.6212,169.9314 L261.6212,164.7104 L261.6212,163.2034 L263.0662,163.6194 L270.5822,165.7814 L271.4082,166.0184 L271.4082,166.8724 L271.4082,172.7454 Z M274.9292,176.1194 L269.9632,174.6884 L269.1382,174.4514 L269.1382,173.5984 L269.1382,167.7244 L263.8902,166.2164 L263.8902,171.4334 L263.8902,172.9344 L262.4452,172.5184 L257.4742,171.0864 L256.6502,170.8494 L256.6502,170.0014 L256.6502,152.7624 L256.6502,151.2604 L258.0952,151.6764 L263.0662,153.1084 L263.8902,153.3464 L263.8902,154.1944 L263.8902,159.6824 L269.1382,161.1934 L269.1382,156.3574 L269.1382,154.8514 L270.5822,155.2674 L275.5512,156.6984 L276.3752,156.9344 L276.3752,157.7884 L276.3752,175.0284 L276.3752,176.5354 L274.9292,176.1194 Z" id="Fill-159" fill="#FEFEFE"></path>
        <polygon id="Fill-161" fill="#FEFEFE" points="293.3672 181.3342 281.1662 176.9922 281.1662 159.7522 293.1662 164.0232 293.1662 167.4802 286.0412 164.9432 286.0412 168.0922 292.8402 170.5122 292.8402 173.9922 286.0412 171.5712 286.0412 175.2452 293.3672 177.8532"></polygon>
        <path d="M282.3008,176.1946 L292.2328,179.7286 L292.2328,178.6506 L285.6658,176.3136 L284.9078,176.0436 L284.9078,175.2456 L284.9078,171.5726 L284.9078,169.9666 L286.4178,170.5056 L291.7048,172.3866 L291.7048,171.3096 L285.6658,169.1606 L284.9078,168.8906 L284.9078,168.0916 L284.9078,164.9426 L284.9078,163.3366 L286.4178,163.8756 L292.0308,165.8746 L292.0308,164.8216 L282.3008,161.3586 L282.3008,176.1946 Z M292.9898,182.4026 L280.7908,178.0606 L280.0328,177.7916 L280.0328,176.9926 L280.0328,159.7526 L280.0328,158.1466 L281.5428,158.6846 L293.5428,162.9556 L294.3008,163.2256 L294.3008,164.0236 L294.3008,167.4806 L294.3008,169.0876 L292.7888,168.5486 L287.1758,166.5486 L287.1758,167.2946 L293.2168,169.4436 L293.9748,169.7136 L293.9748,170.5116 L293.9748,173.9926 L293.9748,175.5976 L292.4628,175.0606 L287.1758,173.1786 L287.1758,174.4476 L293.7438,176.7846 L294.5018,177.0536 L294.5018,177.8516 L294.5018,181.3346 L294.5018,182.9406 L292.9898,182.4026 Z" id="Fill-163" fill="#FEFEFE"></path>
        <path d="M29.2114,167.3958 C29.2114,168.8708 28.9514,170.2178 28.4284,171.4368 C27.9104,172.6578 27.2244,173.7168 26.3654,174.6168 C25.5114,175.5188 24.5864,176.2718 23.5974,176.8798 C22.6094,177.4878 21.6204,177.9598 20.6354,178.2978 C19.2614,178.7748 17.9204,178.9898 16.6194,178.9408 C15.3164,178.8928 14.2284,178.4248 13.3544,177.5348 C12.4774,176.6418 12.0384,175.2428 12.0384,173.3268 L12.0384,163.8158 L16.9394,162.1248 L16.9394,170.2838 C16.9394,171.4168 17.0924,172.3018 17.4004,172.9358 C17.7104,173.5698 18.1404,173.9638 18.6914,174.1168 C19.2404,174.2698 19.8934,174.2188 20.6434,173.9598 C21.3634,173.7098 21.9984,173.3208 22.5534,172.7878 C23.1074,172.2578 23.5404,171.5718 23.8484,170.7278 C24.1554,169.8848 24.3134,168.8958 24.3134,167.7608 L24.3134,159.5768 L29.2114,157.8858 L29.2114,167.3958 Z" id="Fill-165" fill="#EC1D24"></path>
        <polygon id="Fill-167" fill="#EC1D24" points="50.8057 155.9925 44.7337 157.6735 44.7337 170.7155 39.7417 172.1005 39.7417 159.0575 33.6697 160.7425 33.6697 156.5445 50.8057 151.7955"></polygon>
        <path d="M64.1616,159.4251 L61.7056,153.6961 L59.2266,160.5641 L64.1616,159.4251 Z M71.8626,164.1351 L66.6876,165.3281 L65.3236,162.1611 L58.0426,163.8411 L56.6536,167.6451 L51.4766,168.8371 L58.8896,149.8891 L64.4756,148.6001 L71.8626,164.1351 Z" id="Fill-169" fill="#EC1D24"></path>
        <polygon id="Fill-171" fill="#EC1D24" points="93.8506 160.0901 88.7386 161.0161 88.7386 154.2921 81.0796 155.6761 81.0796 162.3991 75.9666 163.3261 75.9666 146.0861 81.0796 145.1621 81.0796 151.5051 88.7386 150.1181 88.7386 143.7781 93.8506 142.8521"></polygon>
        <path d="M120.2559,150.1966 L117.7529,144.1706 L115.2239,150.7346 L120.2559,150.1966 Z M128.1099,155.8386 L122.8349,156.4036 L121.4409,153.0736 L114.0139,153.8686 L112.5959,157.5026 L107.3179,158.0666 L114.8789,140.0186 L120.5769,139.4066 L128.1099,155.8386 Z" id="Fill-173" fill="#EC1D24"></path>
        <polygon id="Fill-175" fill="#EC1D24" points="147.2764 137.6116 139.5384 155.4616 136.1224 155.6356 128.5294 138.5716 133.9164 138.2966 137.8434 148.0396 141.8794 137.8876"></polygon>
        <path d="M160.6719,148.5764 L158.1579,142.2264 L155.6149,148.4654 L160.6719,148.5764 Z M168.5679,155.2324 L163.2639,155.1174 L161.8609,151.6054 L154.4019,151.4434 L152.9769,154.8944 L147.6719,154.7784 L155.2679,137.7064 L160.9939,137.8314 L168.5679,155.2324 Z" id="Fill-177" fill="#EC1D24"></path>
        <polygon id="Fill-179" fill="#EC1D24" points="185.7617 156.7395 172.7537 155.6345 172.7537 138.3935 177.9137 138.8345 177.9137 151.9495 185.7617 152.6155"></polygon>
        <path d="M201.1641,152.2014 L198.6721,145.5694 L196.1501,151.5274 L201.1641,152.2014 Z M208.9901,159.7394 L203.7321,159.0324 L202.3441,155.3634 L194.9471,154.3684 L193.5311,157.6604 L188.2751,156.9524 L195.8071,140.7244 L201.4841,141.4904 L208.9901,159.7394 Z" id="Fill-181" fill="#EC1D24"></path>
        <polygon id="Fill-183" fill="#EC1D24" points="231.5234 163.8342 226.9824 162.9882 218.2034 151.7482 218.2034 161.3582 213.1604 160.4202 213.1604 143.1812 217.6794 144.0222 226.4314 155.2102 226.4314 145.6492 231.5234 146.5952"></polygon>
        <path d="M252.584,167.3889 C251.893,167.5999 251.186,167.7289 250.459,167.7829 C249.732,167.8369 249.002,167.8259 248.268,167.7459 C247.531,167.6699 246.766,167.5389 245.977,167.3549 C244.52,167.0129 243.215,166.4989 242.059,165.8189 C240.904,165.1279 239.902,164.2849 239.053,163.2779 C238.203,162.2729 237.572,161.1809 237.15,159.9969 C236.729,158.8179 236.514,157.5819 236.514,156.2869 C236.514,154.8049 236.766,153.5639 237.264,152.5659 C237.76,151.5669 238.459,150.8039 239.357,150.2779 C240.252,149.7469 241.271,149.4439 242.42,149.3609 C243.566,149.2739 244.777,149.3829 246.051,149.6809 C247.951,150.1249 250.104,151.0639 252.514,152.4959 L252.514,157.0759 C251.682,156.3509 250.863,155.7169 250.053,155.1739 C249.244,154.6329 248.291,154.2359 247.197,153.9769 C246.225,153.7489 245.313,153.7379 244.467,153.9359 C243.621,154.1369 242.943,154.5449 242.426,155.1639 C241.91,155.7819 241.65,156.5839 241.65,157.5729 C241.65,158.4429 241.877,159.2929 242.328,160.1249 C242.779,160.9569 243.408,161.6819 244.209,162.2969 C245.008,162.9079 245.912,163.3329 246.92,163.5699 C247.732,163.7589 248.5,163.8379 249.227,163.8059 C249.953,163.7719 250.563,163.6879 251.059,163.5539 C251.551,163.4239 252.063,163.2479 252.584,163.0329 L252.584,167.3889 Z" id="Fill-185" fill="#EC1D24"></path>
        <polygon id="Fill-187" fill="#EC1D24" points="275.2402 175.0286 270.2712 173.5976 270.2712 166.8726 262.7562 164.7106 262.7562 171.4326 257.7852 170.0016 257.7852 152.7616 262.7562 154.1946 262.7562 160.5356 270.2712 162.6996 270.2712 156.3576 275.2402 157.7886"></polygon>
        <polygon id="Fill-189" fill="#EC1D24" points="293.3672 181.3342 281.1662 176.9922 281.1662 159.7522 293.1662 164.0232 293.1662 167.4802 286.0412 164.9432 286.0412 168.0922 292.8402 170.5122 292.8402 173.9922 286.0412 171.5712 286.0412 175.2452 293.3672 177.8532"></polygon>
        <polygon id="Fill-191" fill="#FEFEFE" points="79.2256 67.8128 77.0376 71.1778 70.4776 71.8908 74.7586 74.6768 72.9716 77.4268 63.8206 71.4748 65.6076 68.7228 69.6996 71.3838 67.7656 65.4098 69.7146 62.4138 71.7846 68.6068"></polygon>
        <polygon id="Fill-193" fill="#FEFEFE" points="85.4165 60.6111 80.1055 66.8941 71.7715 59.8511 76.9945 53.6711 78.6675 55.0851 75.5655 58.7541 77.0985 60.0471 80.0525 56.5471 81.7285 57.9621 78.7715 61.4631 80.5545 62.9671 83.7435 59.1971"></polygon>
        <polygon id="Fill-195" fill="#FEFEFE" points="92.9849 53.345 86.9979 58.985 79.5109 51.037 85.4009 45.49 86.9039 47.085 83.4089 50.38 84.7809 51.84 88.1199 48.697 89.6229 50.293 86.2849 53.436 87.8899 55.134 91.4799 51.747"></polygon>
        <path d="M95.124,42.3113 C94.816,41.8963 94.48,41.7023 94.124,41.7323 C93.761,41.7613 93.267,42.0123 92.628,42.4803 L92.072,42.8953 L93.634,45.0003 L94.201,44.5793 C94.641,44.2533 94.957,43.9773 95.152,43.7473 C95.344,43.5173 95.443,43.2903 95.438,43.0643 C95.436,42.8403 95.331,42.5883 95.124,42.3113 M97.807,40.3033 C98.046,40.6293 98.226,40.9873 98.345,41.3803 C98.465,41.7733 98.499,42.1933 98.445,42.6473 C98.396,43.0993 98.223,43.5643 97.925,44.0453 C97.621,44.5263 97.187,44.9783 96.613,45.4043 L94.883,46.6873 L97.323,49.9763 L94.678,51.9363 L88.179,43.1693 L92.551,39.9273 C93.124,39.5013 93.687,39.2153 94.233,39.0703 C94.78,38.9263 95.281,38.8963 95.728,38.9833 C96.176,39.0673 96.575,39.2273 96.92,39.4583 C97.27,39.6933 97.562,39.9753 97.807,40.3033" id="Fill-197" fill="#FEFEFE"></path>
        <polygon id="Fill-199" fill="#FEFEFE" points="107.1235 43.4768 104.3025 45.1638 98.7015 35.7858 101.5235 34.0998"></polygon>
        <polygon id="Fill-201" fill="#FEFEFE" points="120.3047 37.0735 117.6357 38.2805 109.9817 35.0735 112.4817 40.6095 109.5147 41.9515 105.0187 32.0015 107.6757 30.7985 115.3087 33.9885 112.8157 28.4745 115.8037 27.1235"></polygon>
        <path d="M131.9341,32.8181 C131.7291,32.9701 131.5581,33.0971 131.4101,33.1961 C131.2671,33.3011 131.1261,33.3951 130.9881,33.4851 C130.8531,33.5721 130.6541,33.6931 130.3911,33.8451 C129.9451,34.0951 129.4931,34.3181 129.0321,34.5121 C128.5721,34.7091 128.0751,34.8831 127.5461,35.0361 C126.4831,35.3421 125.4401,35.4331 124.4281,35.3051 C123.4111,35.1771 122.5141,34.7831 121.7381,34.1221 C120.9601,33.4631 120.3961,32.5371 120.0551,31.3461 C119.8321,30.5801 119.7541,29.7861 119.8211,28.9681 C119.8881,28.1481 120.1441,27.4321 120.5901,26.8221 C120.9571,26.3191 121.3571,25.8991 121.7881,25.5651 C122.2201,25.2311 122.6581,24.9631 123.1041,24.7631 C123.5491,24.5631 124.0521,24.3821 124.6131,24.2211 C125.5361,23.9551 126.3181,23.8041 126.9571,23.7691 C127.6011,23.7341 128.3101,23.7261 129.0931,23.7461 L129.8101,26.2281 C129.2551,26.0881 128.6861,26.0021 128.1011,25.9671 C127.5161,25.9331 126.8291,26.0291 126.0381,26.2601 C125.1231,26.5231 124.4411,26.9061 123.9921,27.4091 C123.5421,27.9141 123.2791,28.4371 123.2051,28.9771 C123.1261,29.5181 123.1541,30.0141 123.2841,30.4621 C123.4381,30.9911 123.7031,31.4431 124.0781,31.8181 C124.4571,32.1931 124.9321,32.4441 125.5111,32.5681 C126.0881,32.6931 126.7301,32.6531 127.4381,32.4491 C127.8431,32.3331 128.2551,32.1551 128.6821,31.9201 L128.3251,30.6921 L126.9051,31.1011 L126.2911,28.9841 L130.4791,27.7771 L131.9341,32.8181 Z" id="Fill-203" fill="#FEFEFE"></path>
        <polygon id="Fill-205" fill="#FEFEFE" points="150.0591 20.3738 146.2791 26.6198 146.6871 31.6058 143.4111 31.8738 143.0061 26.9518 138.1801 21.3438 141.5861 21.0648 144.3601 24.2948 146.5831 20.6588"></polygon>
        <path d="M160.0117,26.2073 C160.0317,25.7983 159.9887,25.4233 159.8847,25.0783 C159.7797,24.7323 159.6097,24.4303 159.3747,24.1703 C159.1447,23.9103 158.8557,23.7013 158.5097,23.5453 C158.1657,23.3913 157.7637,23.3043 157.2987,23.2813 C156.4177,23.2413 155.7087,23.4653 155.1817,23.9573 C154.6547,24.4473 154.3707,25.1113 154.3317,25.9443 C154.2927,26.7793 154.5137,27.4663 154.9957,28.0063 C155.4827,28.5473 156.1617,28.8373 157.0367,28.8783 C157.6427,28.9073 158.1597,28.8123 158.5977,28.5923 C159.0347,28.3743 159.3727,28.0583 159.6157,27.6443 C159.8557,27.2313 159.9887,26.7533 160.0117,26.2073 M163.3637,26.3633 C163.3147,27.3793 163.0367,28.3053 162.5297,29.1393 C162.0197,29.9723 161.2867,30.6203 160.3357,31.0803 C159.3847,31.5383 158.2407,31.7393 156.9077,31.6773 C155.5607,31.6153 154.4337,31.3003 153.5237,30.7323 C152.6117,30.1643 151.9517,29.4423 151.5367,28.5673 C151.1237,27.6913 150.9377,26.7663 150.9837,25.7903 C151.0297,24.8093 151.2977,23.9023 151.7877,23.0713 C152.2797,22.2403 153.0037,21.5833 153.9627,21.1063 C154.9237,20.6293 156.0817,20.4213 157.4277,20.4823 C158.4357,20.5293 159.3247,20.7203 160.1037,21.0563 C160.8787,21.3923 161.5077,21.8263 161.9957,22.3623 C162.4807,22.8973 162.8377,23.5093 163.0687,24.2013 C163.2987,24.8923 163.3987,25.6123 163.3637,26.3633" id="Fill-207" fill="#FEFEFE"></path>
        <path d="M176.5176,29.3469 C176.3456,30.2659 176.0236,31.0169 175.5546,31.5989 C175.0916,32.1819 174.5356,32.6059 173.9026,32.8749 C173.2636,33.1449 172.6036,33.2989 171.9216,33.3399 C171.2366,33.3809 170.5686,33.3379 169.9176,33.2139 C169.0116,33.0409 168.1566,32.7169 167.3556,32.2429 C166.5606,31.7699 165.9396,31.1059 165.5096,30.2509 C165.0686,29.3959 164.9626,28.3739 165.1936,27.1819 L166.3266,21.2579 L169.5546,21.8739 L168.5836,26.9639 C168.4496,27.6719 168.4356,28.2769 168.5526,28.7779 C168.6696,29.2809 168.8886,29.6719 169.2106,29.9559 C169.5336,30.2399 169.9416,30.4279 170.4376,30.5229 C170.9126,30.6139 171.3536,30.5889 171.7596,30.4489 C172.1656,30.3059 172.5156,30.0249 172.8086,29.6039 C173.0976,29.1829 173.3126,28.6189 173.4496,27.9109 L174.4236,22.8039 L177.6526,23.4239 L176.5176,29.3469 Z" id="Fill-209" fill="#FEFEFE"></path>
        <path d="M193.0547,34.7239 C193.2147,34.3459 193.3067,33.9779 193.3277,33.6209 C193.3477,33.2629 193.2907,32.9209 193.1637,32.5929 C193.0367,32.2679 192.8397,31.9739 192.5667,31.7069 C192.2987,31.4429 191.9477,31.2179 191.5257,31.0379 C190.7087,30.6939 189.9687,30.6589 189.3047,30.9349 C188.6367,31.2119 188.1427,31.7339 187.8167,32.5049 C187.4907,33.2729 187.4587,33.9939 187.7267,34.6679 C187.9927,35.3419 188.5297,35.8499 189.3377,36.1929 C189.8947,36.4299 190.4157,36.5209 190.9007,36.4679 C191.3867,36.4119 191.8127,36.2359 192.1817,35.9319 C192.5487,35.6299 192.8417,35.2269 193.0547,34.7239 M196.1407,36.0309 C195.7427,36.9689 195.1597,37.7419 194.3947,38.3479 C193.6247,38.9509 192.7147,39.3049 191.6637,39.4069 C190.6117,39.5069 189.4727,39.2979 188.2427,38.7769 C186.9997,38.2509 186.0507,37.5619 185.3927,36.7139 C184.7407,35.8659 184.3667,34.9599 184.2847,33.9939 C184.2007,33.0269 184.3497,32.0939 184.7307,31.1969 C185.1137,30.2919 185.6797,29.5349 186.4277,28.9269 C187.1777,28.3149 188.0857,27.9519 189.1527,27.8369 C190.2187,27.7229 191.3747,27.9269 192.6177,28.4549 C193.5467,28.8489 194.3167,29.3369 194.9257,29.9209 C195.5407,30.5049 195.9787,31.1329 196.2477,31.8029 C196.5177,32.4739 196.6407,33.1719 196.6157,33.9019 C196.5917,34.6299 196.4337,35.3399 196.1407,36.0309" id="Fill-211" fill="#FEFEFE"></path>
        <polygon id="Fill-213" fill="#FEFEFE" points="205.0801 47.7146 202.5741 46.1926 200.8911 38.0566 197.7361 43.2606 194.9491 41.5686 200.6051 32.2406 203.1051 33.7556 204.7931 41.8476 207.9301 36.6816 210.7381 38.3856"></polygon>
        <polygon id="Fill-215" fill="#FEFEFE" points="224.9062 53.9309 221.9802 51.1979 216.3382 57.2329 213.9392 54.9899 219.5842 48.9549 216.6622 46.2239 218.4722 44.2859 226.7172 51.9909"></polygon>
        <path d="M229.2441,63.4036 C229.5601,63.1426 229.8101,62.8576 229.9921,62.5496 C230.1781,62.2416 230.2851,61.9136 230.3221,61.5676 C230.3591,61.2196 230.3181,60.8656 230.2011,60.5066 C230.0841,60.1476 229.8771,59.7896 229.5801,59.4346 C229.0191,58.7536 228.3791,58.3836 227.6621,58.3206 C226.9451,58.2596 226.2671,58.4956 225.6271,59.0256 C224.9821,59.5566 224.6251,60.1816 224.5511,60.9016 C224.4761,61.6216 224.7171,62.3196 225.2771,62.9946 C225.6621,63.4596 226.0801,63.7806 226.5371,63.9556 C226.9941,64.1326 227.4511,64.1726 227.9181,64.0736 C228.3831,63.9726 228.8241,63.7516 229.2441,63.4036 M231.3831,65.9866 C230.5991,66.6346 229.7241,67.0536 228.7651,67.2356 C227.8081,67.4186 226.8361,67.3126 225.8571,66.9186 C224.8751,66.5246 223.9611,65.8126 223.1111,64.7856 C222.2541,63.7466 221.7281,62.6986 221.5351,61.6446 C221.3441,60.5906 221.4331,59.6146 221.8051,58.7176 C222.1741,57.8236 222.7361,57.0656 223.4881,56.4426 C224.2441,55.8156 225.0961,55.4066 226.0431,55.2096 C226.9861,55.0146 227.9591,55.1106 228.9571,55.5006 C229.9591,55.8876 230.8891,56.6026 231.7461,57.6406 C232.3891,58.4196 232.8481,59.2086 233.1211,60.0056 C233.3941,60.8076 233.4961,61.5646 233.4261,62.2846 C233.3531,63.0016 233.1401,63.6806 232.7831,64.3176 C232.4281,64.9506 231.9611,65.5086 231.3831,65.9866" id="Fill-217" fill="#FEFEFE"></path>
        <path d="M237.5977,72.0838 C238.0447,71.8058 238.2637,71.4848 238.2637,71.1228 C238.2697,70.7588 238.0567,70.2398 237.6327,69.5668 L237.2677,68.9788 L235.0177,70.3868 L235.3947,70.9878 C235.6837,71.4538 235.9357,71.7908 236.1507,72.0038 C236.3677,72.2148 236.5877,72.3308 236.8147,72.3428 C237.0427,72.3548 237.3047,72.2698 237.5977,72.0838 M239.3947,74.9228 C239.0527,75.1378 238.6797,75.2908 238.2777,75.3748 C237.8767,75.4608 237.4517,75.4628 237.0017,75.3768 C236.5587,75.2918 236.1077,75.0818 235.6487,74.7428 C235.1917,74.4058 234.7737,73.9318 234.3967,73.3268 L233.2477,71.4958 L229.7797,73.6678 L228.0337,70.8818 L237.2907,65.0838 L240.1857,69.7048 C240.5647,70.3118 240.8047,70.8928 240.9107,71.4518 C241.0117,72.0098 240.9997,72.5108 240.8787,72.9518 C240.7597,73.3938 240.5667,73.7758 240.3067,74.1048 C240.0467,74.4328 239.7437,74.7028 239.3947,74.9228" id="Fill-219" fill="#FEFEFE"></path>
    </g>
</svg>